<svg width="34" height="26" viewBox="0 0 34 26" fill="none" xmlns="http://www.w3.org/2000/svg">
<path d="M33.6798 7.04111L33.6376 6.758L33.5938 6.76811C33.2944 5.36778 32.6046 4.08084 31.6042 3.05622C30.6038 2.0316 29.3338 1.31116 27.941 0.978264C26.5483 0.64537 25.0897 0.713626 23.7341 1.17514C22.3785 1.63664 21.1813 2.47254 20.281 3.58611C19.3807 4.69969 18.8141 6.04541 18.6467 7.46759C18.4794 8.88977 18.7181 10.3303 19.3353 11.6224C19.9525 12.9146 20.923 14.0056 22.1344 14.7691C23.3458 15.5327 24.7487 15.9377 26.1807 15.9372C26.5565 15.9372 26.9171 15.8799 27.276 15.8277C27.1598 16.2187 27.0401 16.6164 26.848 16.9736C26.6559 17.4927 26.3559 17.9426 26.0576 18.3959C25.8082 18.8863 25.3684 19.2183 25.0448 19.6379C24.7061 20.0457 24.2444 20.3171 23.8787 20.6558C23.5197 21.0097 23.0496 21.1866 22.6755 21.436C22.2845 21.6602 21.9441 21.9079 21.5801 22.0258L20.6718 22.4L19.873 22.7319L20.6886 25.9995L21.6947 25.7569C22.0166 25.676 22.4092 25.5816 22.8558 25.4687C23.3125 25.3844 23.7995 25.1536 24.3421 24.9429C24.8763 24.7019 25.4982 24.5418 26.0745 24.1559C26.6542 23.7886 27.3232 23.4818 27.913 22.9898C28.4843 22.4825 29.1736 22.0427 29.6825 21.399C30.2386 20.7957 30.788 20.162 31.2143 19.4408C31.7081 18.7532 32.0434 17.9982 32.3973 17.2517C32.7175 16.5052 32.9754 15.7418 33.186 15.0003C33.5854 13.5139 33.764 12.1017 33.8331 10.8935C33.8904 9.68349 33.8567 8.67743 33.7859 7.94943C33.7623 7.6454 33.7268 7.3424 33.6798 7.04111ZM15.1426 7.04111L15.1005 6.758L15.0567 6.76811C14.7573 5.36778 14.0674 4.08084 13.0671 3.05622C12.0667 2.0316 10.7966 1.31116 9.40389 0.978264C8.01113 0.64537 6.55257 0.713626 5.19699 1.17514C3.8414 1.63664 2.64419 2.47254 1.74388 3.58611C0.843566 4.69969 0.27695 6.04541 0.10959 7.46759C-0.0577693 8.88977 0.180968 10.3303 0.798179 11.6224C1.41539 12.9146 2.38585 14.0056 3.59727 14.7691C4.80868 15.5327 6.21155 15.9377 7.64354 15.9372C8.01934 15.9372 8.37997 15.8799 8.73891 15.8277C8.62264 16.2187 8.50299 16.6164 8.31088 16.9736C8.11876 17.4927 7.8188 17.9426 7.52052 18.3959C7.27111 18.8863 6.83128 19.2183 6.50772 19.6379C6.169 20.0457 5.70725 20.3171 5.34157 20.6558C4.98262 21.0097 4.51245 21.1866 4.13834 21.436C3.74737 21.6602 3.40697 21.9079 3.04296 22.0258L2.13464 22.4C1.6274 22.6072 1.33755 22.7286 1.33755 22.7286L2.15318 25.9962L3.15924 25.7535C3.48111 25.6726 3.87376 25.5782 4.32034 25.4653C4.77703 25.3811 5.26405 25.1502 5.80668 24.9395C6.34089 24.6986 6.96272 24.5385 7.53906 24.1526C8.11876 23.7852 8.78778 23.4785 9.3776 22.9864C9.94888 22.4792 10.6381 22.0393 11.1471 21.3956C11.7032 20.7923 12.2525 20.1586 12.6789 19.4374C13.1727 18.7498 13.508 17.9949 13.8619 17.2483C14.1821 16.5018 14.4399 15.7384 14.6506 14.9969C15.05 13.5106 15.2286 12.0984 15.2977 10.8901C15.355 9.68012 15.3213 8.67406 15.2505 7.94606C15.2253 7.64322 15.1894 7.34138 15.1426 7.04111Z" fill="#1B435D"/>
</svg>
