<svg width="769" height="412" viewBox="0 0 769 412" fill="none" xmlns="http://www.w3.org/2000/svg">
<path d="M685.973 140.674C655.73 114.878 619.276 -40.6877 494.381 40.3359C429.861 82.1971 321.057 4.39819 230.999 31.2699C148.294 55.9485 140.321 137.256 148.324 163.75C164.488 217.268 114.184 225.232 67.5187 248.227C-5.68112 284.294 48.1457 411.052 117.299 411.66C186.451 412.265 605.393 410.452 605.393 410.452C605.393 410.452 705.847 410.705 747.625 355.261C792.579 295.596 764.082 207.304 685.973 140.674Z" fill="#FCFCFC"/>
<path d="M558.539 334.229H730.702V44.9638H558.539V334.229Z" fill="#AED3FF"/>
<path d="M553.144 44.9635V334.229H725.306V44.9635H553.144Z" fill="#D5EEFF"/>
<path d="M713.988 161.88H564.864V61.124H713.988V161.88Z" fill="#F3F9FF"/>
<path d="M711.418 310.224H631.383V256.43H711.418V310.224Z" fill="#F3F9FF"/>
<path d="M571.014 112.548C571.014 112.548 596.476 109.375 612.036 123.709C627.591 138.042 656.577 124.979 668.248 123.709C688.538 121.5 704.443 128.139 709.163 135.436V157.326H571.014V112.548Z" fill="#FDB44B"/>
<path d="M591.815 111.501H590.747V77.3178H591.815V111.501Z" fill="#78BBE6"/>
<path d="M633.688 126.169H632.624V91.9862H633.688V126.169Z" fill="#78BBE6"/>
<path d="M676.89 118.434H675.823V84.2509H676.89V118.434Z" fill="#78BBE6"/>
<path d="M603.729 82.5626H595.547C595.058 82.5626 594.661 82.1626 594.661 81.6736C594.661 81.1849 595.058 80.7849 595.547 80.7849H603.729C604.214 80.7849 604.615 81.1849 604.615 81.6736C604.615 82.1626 604.214 82.5626 603.729 82.5626Z" fill="#78BBE6"/>
<path d="M603.729 85.7649H595.547C595.058 85.7649 594.661 85.3649 594.661 84.8754C594.661 84.3868 595.058 83.9868 595.547 83.9868H603.729C604.214 83.9868 604.615 84.3868 604.615 84.8754C604.615 85.3649 604.214 85.7649 603.729 85.7649Z" fill="#78BBE6"/>
<path d="M644.976 99.9864H636.8C636.308 99.9864 635.91 99.5866 635.91 99.0973C635.91 98.6084 636.308 98.2085 636.8 98.2085H644.976C645.468 98.2085 645.866 98.6084 645.866 99.0973C645.866 99.5866 645.468 99.9864 644.976 99.9864Z" fill="#78BBE6"/>
<path d="M644.976 103.121H636.8C636.308 103.121 635.91 102.721 635.91 102.232C635.91 101.743 636.308 101.343 636.8 101.343H644.976C645.468 101.343 645.866 101.743 645.866 102.232C645.866 102.721 645.468 103.121 644.976 103.121Z" fill="#78BBE6"/>
<path d="M688.889 87.0975H680.714C680.225 87.0975 679.822 86.6973 679.822 86.2088C679.822 85.7199 680.225 85.3197 680.714 85.3197H688.889C689.382 85.3197 689.781 85.7199 689.781 86.2088C689.781 86.6973 689.382 87.0975 688.889 87.0975Z" fill="#78BBE6"/>
<path d="M688.889 90.2312H680.714C680.225 90.2312 679.822 89.8315 679.822 89.3421C679.822 88.8532 680.225 88.4534 680.714 88.4534H688.889C689.382 88.4534 689.781 88.8532 689.781 89.3421C689.781 89.8315 689.382 90.2312 688.889 90.2312Z" fill="#78BBE6"/>
<path d="M684.537 187.651C684.537 179.519 691.135 172.927 699.263 172.927C707.396 172.927 713.988 179.519 713.988 187.651C713.988 195.783 707.396 202.375 699.263 202.375C691.135 202.375 684.537 195.783 684.537 187.651Z" fill="#F3F9FF"/>
<path d="M712.742 187.65C712.742 195.092 706.712 201.126 699.265 201.126C695.755 201.126 692.551 199.783 690.159 197.581L699.265 187.65V174.174C706.712 174.174 712.742 180.208 712.742 187.65Z" fill="#1B435D"/>
<path d="M694.135 185.276H689.297C689.072 185.276 688.891 185.094 688.891 184.871C688.891 184.648 689.072 184.466 689.297 184.466H694.135C694.359 184.466 694.54 184.648 694.54 184.871C694.54 185.094 694.359 185.276 694.135 185.276Z" fill="#78BBE6"/>
<path d="M647.985 187.65C647.985 179.518 654.579 172.926 662.708 172.926C670.841 172.926 677.434 179.518 677.434 187.65C677.434 195.782 670.841 202.374 662.708 202.374C654.579 202.374 647.985 195.782 647.985 187.65Z" fill="#F3F9FF"/>
<path d="M662.708 187.65L670.99 198.282C668.703 200.065 665.834 201.126 662.708 201.126C655.264 201.126 649.231 195.092 649.231 187.65C649.231 180.208 655.264 174.174 662.708 174.174C669.733 174.174 675.504 179.553 676.129 186.419L662.708 187.65Z" fill="#5E6876"/>
<path d="M673.087 190.981H669.717C669.494 190.981 669.313 190.799 669.313 190.576C669.313 190.353 669.494 190.171 669.717 190.171H673.087C673.31 190.171 673.491 190.353 673.491 190.576C673.491 190.799 673.31 190.981 673.087 190.981Z" fill="#78BBE6"/>
<path d="M684.537 228.206C684.537 220.073 691.135 213.482 699.263 213.482C707.396 213.482 713.988 220.073 713.988 228.206C713.988 236.338 707.396 242.932 699.263 242.932C691.135 242.932 684.537 236.338 684.537 228.206Z" fill="#F3F9FF"/>
<path d="M712.742 228.204C712.742 235.646 706.712 241.681 699.265 241.681C695.755 241.681 692.551 240.338 690.159 238.134L699.265 228.204V214.729C706.712 214.729 712.742 220.761 712.742 228.204Z" fill="#FDB44B"/>
<path d="M694.135 225.832H689.297C689.072 225.832 688.891 225.648 688.891 225.424C688.891 225.202 689.072 225.019 689.297 225.019H694.135C694.359 225.019 694.54 225.202 694.54 225.424C694.54 225.648 694.359 225.832 694.135 225.832Z" fill="#78BBE6"/>
<path d="M647.985 228.205C647.985 220.073 654.579 213.481 662.708 213.481C670.841 213.481 677.434 220.073 677.434 228.205C677.434 236.337 670.841 242.931 662.708 242.931C654.579 242.931 647.985 236.337 647.985 228.205Z" fill="#F3F9FF"/>
<path d="M676.129 226.975C675.504 220.109 669.733 214.73 662.708 214.73C655.264 214.73 649.231 220.762 649.231 228.205C649.231 235.647 655.264 241.682 662.708 241.682C665.834 241.682 668.703 240.621 670.99 238.837L662.708 228.205L676.129 226.975Z" fill="#1B435D"/>
<path d="M673.087 231.536H669.717C669.494 231.536 669.313 231.355 669.313 231.131C669.313 230.909 669.494 230.726 669.717 230.726H673.087C673.31 230.726 673.491 230.909 673.491 231.131C673.491 231.355 673.31 231.536 673.087 231.536Z" fill="#78BBE6"/>
<path d="M707.969 306.465H634.509V263.06H635.421V305.551H707.969V306.465Z" fill="#78BBE6"/>
<path d="M657.472 290.768C648.48 283.609 638.916 290.768 638.916 290.768V303.005H706.144V271.372C687.873 271.832 666.464 297.925 657.472 290.768Z" fill="#78BBE6"/>
<path d="M639.684 266.369H671.013C671.434 266.369 671.782 266.022 671.782 265.598C671.782 265.176 671.434 264.828 671.013 264.828H639.684C639.263 264.828 638.916 265.176 638.916 265.598C638.916 266.022 639.263 266.369 639.684 266.369Z" fill="#78BBE6"/>
<path d="M639.684 270.13H671.013C671.434 270.13 671.782 269.783 671.782 269.359C671.782 268.937 671.434 268.59 671.013 268.59H639.684C639.263 268.59 638.915 268.937 638.915 269.359C638.915 269.783 639.263 270.13 639.684 270.13Z" fill="#78BBE6"/>
<path d="M639.544 273.681H660.287C660.634 273.681 660.917 273.397 660.917 273.049V272.77C660.917 272.425 660.634 272.14 660.287 272.14H639.544C639.197 272.14 638.914 272.425 638.914 272.77V273.049C638.914 273.397 639.197 273.681 639.544 273.681Z" fill="#78BBE6"/>
<path d="M524.657 355.261H289.09V-0.000427246H524.657V355.261Z" fill="#D5EEFF"/>
<path d="M501.505 231.27H311.849V19.8735H501.505V231.27Z" fill="#F3F9FF"/>
<path d="M315.881 298.81C315.881 279.971 331.155 264.7 349.992 264.7C368.829 264.7 384.1 279.971 384.1 298.81C384.1 317.646 368.829 332.917 349.992 332.917C331.155 332.917 315.881 317.646 315.881 298.81Z" fill="#F3F9FF"/>
<path d="M378.822 298.811C378.822 282.887 365.915 269.976 349.991 269.976C334.065 269.976 321.158 282.887 321.158 298.811C321.158 314.732 334.065 327.643 349.991 327.643C356.57 327.643 362.63 325.442 367.479 321.734L349.991 298.811L376.935 309.093C378.154 305.899 378.822 302.432 378.822 298.811Z" fill="#FDB44B"/>
<path d="M432.097 298.809C432.097 279.971 447.368 264.7 466.204 264.7C485.044 264.7 500.315 279.971 500.315 298.809C500.315 317.646 485.044 332.917 466.204 332.917C447.368 332.917 432.097 317.646 432.097 298.809Z" fill="#F3F9FF"/>
<path d="M466.205 269.975C450.278 269.975 437.372 282.885 437.372 298.809C437.372 306.691 440.533 313.83 445.659 319.032L466.205 298.809L493.151 309.092C494.367 305.898 495.038 302.431 495.038 298.809C495.038 282.885 482.129 269.975 466.205 269.975Z" fill="#FDB44B"/>
<path d="M461.991 284.171H449.72C449.238 284.171 448.842 284.566 448.842 285.049C448.842 285.531 449.238 285.924 449.72 285.924H461.991C462.473 285.924 462.869 285.531 462.869 285.049C462.869 284.566 462.473 284.171 461.991 284.171Z" fill="#DD7C2C"/>
<path d="M461.991 286.949H449.72C449.238 286.949 448.842 287.342 448.842 287.824C448.842 288.306 449.238 288.702 449.72 288.702H461.991C462.473 288.702 462.869 288.306 462.869 287.824C462.869 287.342 462.473 286.949 461.991 286.949Z" fill="#DD7C2C"/>
<path d="M454.785 289.724H449.718C449.235 289.724 448.842 290.119 448.842 290.602C448.842 291.084 449.235 291.477 449.718 291.477H454.785C455.268 291.477 455.661 291.084 455.661 290.602C455.661 290.119 455.268 289.724 454.785 289.724Z" fill="#DD7C2C"/>
<path d="M345.542 284.17H333.269C332.786 284.17 332.391 284.566 332.391 285.048C332.391 285.53 332.786 285.923 333.269 285.923H345.542C346.025 285.923 346.417 285.53 346.417 285.048C346.417 284.566 346.025 284.17 345.542 284.17Z" fill="#DD7C2C"/>
<path d="M345.542 286.947H333.269C332.786 286.947 332.391 287.34 332.391 287.822C332.391 288.305 332.786 288.7 333.269 288.7H345.542C346.025 288.7 346.417 288.305 346.417 287.822C346.417 287.34 346.025 286.947 345.542 286.947Z" fill="#DD7C2C"/>
<path d="M338.335 289.723H333.269C332.787 289.723 332.391 290.118 332.391 290.601C332.391 291.083 332.787 291.476 333.269 291.476H338.335C338.817 291.476 339.214 291.083 339.214 290.601C339.214 290.118 338.817 289.723 338.335 289.723Z" fill="#DD7C2C"/>
<path d="M328.74 220.093H348.752V95.4203H328.74V220.093Z" fill="#78BBE6"/>
<path d="M361.525 220.094H381.539V60.672H361.525V220.094Z" fill="#78BBE6"/>
<path d="M397.302 220.093H417.318V125.57H397.302V220.093Z" fill="#78BBE6"/>
<path d="M432.115 220.094H452.129V81.9546H432.115V220.094Z" fill="#78BBE6"/>
<path d="M467.111 144.07V220.093H487.124V144.07H467.111Z" fill="#78BBE6"/>
<path d="M451.181 63.9814H434.232C433.269 63.9814 432.476 64.7707 432.476 65.7344C432.476 66.6981 433.269 67.4875 434.232 67.4875H451.181C452.144 67.4875 452.934 66.6981 452.934 65.7344C452.934 64.7707 452.144 63.9814 451.181 63.9814Z" fill="#78BBE6"/>
<path d="M438.091 70.3595H434.231C433.265 70.3595 432.476 71.1489 432.476 72.1147C432.476 73.0773 433.265 73.8667 434.231 73.8667H438.091C439.054 73.8667 439.843 73.0773 439.843 72.1147C439.843 71.1489 439.054 70.3595 438.091 70.3595Z" fill="#78BBE6"/>
<path d="M381.336 36.8295H364.388C363.424 36.8295 362.634 37.619 362.634 38.583C362.634 39.547 363.424 40.3365 364.388 40.3365H381.336C382.3 40.3365 383.09 39.547 383.09 38.583C383.09 37.619 382.3 36.8295 381.336 36.8295Z" fill="#78BBE6"/>
<path d="M368.252 43.2099H364.39C363.426 43.2099 362.636 43.9995 362.636 44.9642C362.636 45.9262 363.426 46.7158 364.39 46.7158H368.252C369.214 46.7158 370.004 45.9262 370.004 44.9642C370.004 43.9995 369.214 43.2099 368.252 43.2099Z" fill="#78BBE6"/>
<path d="M415.781 106.965H398.834C397.869 106.965 397.08 107.755 397.08 108.716C397.08 109.681 397.869 110.47 398.834 110.47H415.781C416.746 110.47 417.535 109.681 417.535 108.716C417.535 107.755 416.746 106.965 415.781 106.965Z" fill="#78BBE6"/>
<path d="M402.696 113.344H398.837C397.87 113.344 397.084 114.13 397.084 115.097C397.084 116.06 397.87 116.85 398.837 116.85H402.696C403.659 116.85 404.449 116.06 404.449 115.097C404.449 114.13 403.659 113.344 402.696 113.344Z" fill="#78BBE6"/>
<path d="M485.589 125.572H468.642C467.675 125.572 466.888 126.361 466.888 127.325C466.888 128.29 467.675 129.078 468.642 129.078H485.589C486.555 129.078 487.343 128.29 487.343 127.325C487.343 126.361 486.555 125.572 485.589 125.572Z" fill="#78BBE6"/>
<path d="M472.498 131.952H468.64C467.676 131.952 466.886 132.741 466.886 133.705C466.886 134.669 467.676 135.459 468.64 135.459H472.498C473.462 135.459 474.252 134.669 474.252 133.705C474.252 132.741 473.462 131.952 472.498 131.952Z" fill="#78BBE6"/>
<path d="M85.1353 134.664V231.589H257.3V134.664H85.1353Z" fill="#AED3FF"/>
<path d="M90.7335 134.664V231.589H262.898V134.664H90.7335Z" fill="#D5EEFF"/>
<path d="M137.82 149.807C120.627 149.807 106.691 163.744 106.691 180.936C106.691 198.128 120.627 212.066 137.82 212.066C155.012 212.066 168.949 198.128 168.949 180.936C168.949 163.744 155.012 149.807 137.82 149.807Z" fill="#F3F9FF"/>
<path d="M243.547 163.546H191.977C190.107 163.546 188.578 165.075 188.578 166.946C188.578 168.814 190.107 170.343 191.977 170.343H243.547C245.415 170.343 246.944 168.814 246.944 166.946C246.944 165.075 245.415 163.546 243.547 163.546Z" fill="#F3F9FF"/>
<path d="M243.547 177.539H191.977C190.107 177.539 188.578 179.068 188.578 180.936C188.578 182.804 190.107 184.333 191.977 184.333H243.547C245.415 184.333 246.944 182.804 246.944 180.936C246.944 179.068 245.415 177.539 243.547 177.539Z" fill="#F3F9FF"/>
<path d="M243.547 191.53H191.977C190.107 191.53 188.578 193.061 188.578 194.929C188.578 196.798 190.107 198.326 191.977 198.326H243.547C245.415 198.326 246.944 196.798 246.944 194.929C246.944 193.061 245.415 191.53 243.547 191.53Z" fill="#F3F9FF"/>
<path d="M109.319 180.486H137.82V151.984C122.08 151.984 109.319 164.745 109.319 180.486Z" fill="#1B435D"/>
<path d="M166.321 181.401H109.319C109.319 197.142 122.08 209.903 137.82 209.903C137.82 209.903 137.82 209.903 137.82 209.903C153.56 209.903 166.321 197.142 166.321 181.401Z" fill="#F1A34F"/>
<path d="M132.897 165.832H117.429C116.549 165.832 115.829 166.55 115.829 167.432C115.829 168.312 116.549 169.031 117.429 169.031H132.897C133.777 169.031 134.497 168.312 134.497 167.432C134.497 166.55 133.777 165.832 132.897 165.832Z" fill="#82B378"/>
<path d="M120.952 171.654H117.429C116.549 171.654 115.829 172.375 115.829 173.255C115.829 174.135 116.549 174.853 117.429 174.853H120.952C121.832 174.853 122.552 174.135 122.552 173.255C122.552 172.375 121.832 171.654 120.952 171.654Z" fill="#82B378"/>
<path d="M155.862 188.369H140.393C139.513 188.369 138.793 189.09 138.793 189.97C138.793 190.85 139.513 191.57 140.393 191.57H155.862C156.742 191.57 157.462 190.85 157.462 189.97C157.462 189.09 156.742 188.369 155.862 188.369Z" fill="#DD8936"/>
<path d="M143.916 194.191H140.393C139.513 194.191 138.793 194.912 138.793 195.792C138.793 196.672 139.513 197.393 140.393 197.393H143.916C144.796 197.393 145.516 196.672 145.516 195.792C145.516 194.912 144.796 194.191 143.916 194.191Z" fill="#DD8936"/>
<path d="M73.0091 248.946V348.07H245.173V248.946H73.0091Z" fill="#AED3FF"/>
<path d="M78.6083 248.946V348.07H250.775V248.946H78.6083Z" fill="#D5EEFF"/>
<path d="M94.5624 295.447C94.5624 278.255 108.5 264.318 125.692 264.318C142.884 264.318 156.821 278.255 156.821 295.447C156.821 312.639 142.884 326.577 125.692 326.577C108.5 326.577 94.5624 312.639 94.5624 295.447Z" fill="#F3F9FF"/>
<path d="M179.848 284.854H231.417C233.285 284.854 234.816 283.323 234.816 281.454C234.816 279.586 233.285 278.057 231.417 278.057H179.848C177.979 278.057 176.451 279.586 176.451 281.454C176.451 283.323 177.979 284.854 179.848 284.854Z" fill="#F3F9FF"/>
<path d="M231.417 292.048H179.848C177.979 292.048 176.451 293.579 176.451 295.447C176.451 297.316 177.979 298.844 179.848 298.844H231.417C233.285 298.844 234.816 297.316 234.816 295.447C234.816 293.579 233.285 292.048 231.417 292.048Z" fill="#F3F9FF"/>
<path d="M231.417 306.04H179.848C177.979 306.04 176.451 307.569 176.451 309.437C176.451 311.305 177.979 312.836 179.848 312.836H231.417C233.285 312.836 234.816 311.305 234.816 309.437C234.816 307.569 233.285 306.04 231.417 306.04Z" fill="#F3F9FF"/>
<path d="M125.692 295.951L97.1933 295.589C97.1907 295.709 97.1907 295.832 97.1907 295.951C97.1907 311.691 109.952 324.452 125.692 324.452C131.32 324.452 136.565 322.82 140.984 320.004L125.692 295.951Z" fill="#F1A34F"/>
<path d="M126.742 304.926H111.273C110.393 304.926 109.673 305.645 109.673 306.527C109.673 307.407 110.393 308.126 111.273 308.126H126.742C127.622 308.126 128.342 307.407 128.342 306.527C128.342 305.645 127.622 304.926 126.742 304.926Z" fill="#DD8936"/>
<path d="M114.796 310.749H111.273C110.393 310.749 109.673 311.47 109.673 312.35C109.673 313.23 110.393 313.951 111.273 313.951H114.796C115.676 313.951 116.396 313.23 116.396 312.35C116.396 311.47 115.676 310.749 114.796 310.749Z" fill="#DD8936"/>
<path d="M73.0103 28.959V118.781H245.177V28.959H73.0103Z" fill="#AED3FF"/>
<path d="M78.6082 28.959V118.781H250.774V28.959H78.6082Z" fill="#D5EEFF"/>
<path d="M94.5623 75.1912C94.5623 57.9974 108.499 44.0612 125.691 44.0612C142.884 44.0612 156.821 57.9974 156.821 75.1912C156.821 92.3825 142.884 106.319 125.691 106.319C108.499 106.319 94.5623 92.3825 94.5623 75.1912Z" fill="#F3F9FF"/>
<path d="M125.693 46.6889C109.953 46.6889 97.1918 59.4483 97.1918 75.1878C97.1918 85.9719 103.182 95.3561 112.015 100.197C116.58 91.7394 125.693 75.1878 125.693 75.1878L139.188 100.294C148.122 95.4829 154.192 86.045 154.192 75.1878C154.192 59.4483 141.434 46.6889 125.693 46.6889Z" fill="#1B435D"/>
<path d="M231.417 57.7998H179.848C177.979 57.7998 176.451 59.3283 176.451 61.1967C176.451 63.0676 177.979 64.5961 179.848 64.5961H231.417C233.285 64.5961 234.816 63.0676 234.816 61.1967C234.816 59.3283 233.285 57.7998 231.417 57.7998Z" fill="#F3F9FF"/>
<path d="M231.417 71.7925H179.848C177.979 71.7925 176.451 73.321 176.451 75.1895C176.451 77.0579 177.979 78.5865 179.848 78.5865H231.417C233.285 78.5865 234.816 77.0579 234.816 75.1895C234.816 73.321 233.285 71.7925 231.417 71.7925Z" fill="#F3F9FF"/>
<path d="M231.417 85.7834H179.848C177.979 85.7834 176.451 87.3119 176.451 89.1803C176.451 91.0512 177.979 92.5797 179.848 92.5797H231.417C233.285 92.5797 234.816 91.0512 234.816 89.1803C234.816 87.3119 233.285 85.7834 231.417 85.7834Z" fill="#F3F9FF"/>
<path d="M126.741 61.5778H111.273C110.393 61.5778 109.673 62.2986 109.673 63.1786C109.673 64.0586 110.393 64.777 111.273 64.777H126.741C127.621 64.777 128.342 64.0586 128.342 63.1786C128.342 62.2986 127.621 61.5778 126.741 61.5778Z" fill="#82B378"/>
<path d="M114.796 67.3996H111.273C110.393 67.3996 109.673 68.1204 109.673 69.0004C109.673 69.8804 110.393 70.6013 111.273 70.6013H114.796C115.676 70.6013 116.396 69.8804 116.396 69.0004C116.396 68.1204 115.676 67.3996 114.796 67.3996Z" fill="#82B378"/>
<path d="M290.704 184.081C290.704 184.081 310.788 204.815 311.752 212.631C312.716 220.45 302.197 232.678 302.197 232.678L290.704 184.081Z" fill="#F7A123"/>
<path d="M282.12 399.149C282.12 399.149 281.436 410.171 279.304 410.328C279.02 410.35 268.489 410.35 268.489 410.35L255.046 410.272C255.046 410.272 255.133 407.032 259.062 406.348C262.992 405.663 269.571 402.9 271.951 397.707C274.456 392.244 282.12 399.149 282.12 399.149Z" fill="#163560"/>
<path d="M312.065 399.149C312.065 399.149 311.381 410.172 309.249 410.329C308.963 410.35 298.432 410.35 298.432 410.35L284.948 410.302C284.948 410.302 285.079 407.033 289.007 406.348C292.935 405.664 299.516 402.9 301.895 397.708C304.4 392.244 312.065 399.149 312.065 399.149Z" fill="#163560"/>
<path d="M267.231 280.959C267.231 280.959 270.75 303.448 283.864 343.367C296.983 383.285 298.769 400.571 298.769 400.571C298.769 400.571 302.317 401.087 306.065 401.087C308.434 401.087 312.838 400.178 312.838 400.178C312.838 400.178 312.96 356.55 306.915 336.477C300.871 316.404 305.61 264.109 305.61 264.109L267.231 280.959Z" fill="#13263C"/>
<path d="M260.384 265.342C260.384 265.342 259.887 299.227 265.75 340.837C271.611 382.444 269.625 400.107 269.625 400.107C269.625 400.107 274.451 400.97 276.148 401.028C277.961 401.088 283.668 400.572 283.668 400.572C283.668 400.572 292.06 358.95 289.654 338.125C287.248 317.3 301.145 266.661 301.145 266.661L260.384 265.342Z" fill="#1B435D"/>
<path d="M287.57 186.04L280.947 190.946L271.373 188.931C271.506 188.058 272.138 184.439 272.714 181.163C272.748 180.97 272.784 180.777 272.815 180.586C273.309 177.799 273.734 175.403 273.734 175.403L282.676 170.948L286.008 169.287C286 169.344 285.75 172.38 285.716 172.823C285.089 180.693 287.57 186.04 287.57 186.04Z" fill="#FFB27D"/>
<path d="M272.043 183.564C272.253 183.477 285.064 179.697 286.455 180.155C287.849 180.616 288.671 183.309 288.671 183.309L267.718 188.046C267.718 188.046 269.367 184.692 272.043 183.564Z" fill="#F7A123"/>
<path d="M306.54 269.524C304.37 279.431 268.229 280.605 258.913 271.612C257.852 270.588 257.802 265.819 258.202 259.389C258.983 246.828 261.493 227.932 261.591 218.276C261.637 213.613 262.279 208.844 263.132 204.515C264.947 195.286 267.715 188.043 267.715 188.043C267.715 188.043 285.368 182.337 288.671 183.308C304.585 187.983 308.713 259.618 306.54 269.524Z" fill="#FDB44B"/>
<path d="M258.203 259.389C258.984 246.828 261.493 227.932 261.592 218.276C261.638 213.613 262.279 208.845 263.133 204.515L273.753 202.641C273.753 202.641 284.134 245.047 258.203 259.389Z" fill="#F7A123"/>
<path d="M263.952 241.879C263.952 241.879 264.675 243.61 263.154 244.772C261.635 245.934 260.649 247.814 260.996 249.191C261.346 250.565 264.68 252.81 265.835 252.448C266.992 252.086 269.343 250.273 269.09 249.548C268.837 248.824 270.674 243.183 267.855 241.011C265.037 238.838 263.952 241.879 263.952 241.879Z" fill="#FFB27D"/>
<path d="M275.826 185.502C275.826 185.502 265.469 187.441 257.216 199.601C248.966 211.762 243.537 220.803 245.056 225.186C246.577 229.569 260.432 244.77 262.822 244.77C265.211 244.77 269.066 243.031 269.283 239.123C269.283 239.123 259.526 224.501 261.447 222.312C262.27 221.377 274.114 211.762 275.804 216.104C278.601 223.291 275.826 185.502 275.826 185.502Z" fill="#FDB44B"/>
<path d="M285.042 172.963C283.08 176.72 275.765 179.969 272.713 181.163C272.747 180.97 272.783 180.777 272.814 180.587C273.308 177.8 273.733 175.403 273.733 175.403L282.675 170.948C284.649 170.917 285.852 171.418 285.042 172.963Z" fill="#FCA56B"/>
<path d="M270.854 175.608C270.854 175.608 284.088 179.736 286.532 171.454C288.974 163.173 292.33 158.129 283.984 155.142C275.637 152.158 273.055 154.831 271.568 157.396C270.078 159.962 267.474 174.321 270.854 175.608Z" fill="#FFB27D"/>
<path d="M272.086 156.599C272.086 156.599 272.93 166.235 274.924 165.818C276.915 165.398 278.723 165.087 278.431 167.993C278.14 170.898 275.377 174.251 281.517 174.767C287.66 175.281 296.489 159.441 294.801 156.442C289.934 147.789 265.051 146.041 272.086 156.599Z" fill="black"/>
<path d="M33.8126 380.532L37.8415 397.502L43.8767 397.469L44.098 380.532H33.8126Z" fill="#FFB27D"/>
<path d="M84.5771 381.255L96.0409 397.502L100.509 391.765L93.6093 379.023L84.5771 381.255Z" fill="#FFB27D"/>
<path d="M54.772 157.541C52.6888 156.357 50.1918 156.23 48.4456 156.331C48.8955 155.868 49.7798 155.699 49.7798 155.699C48.6968 155.538 46.2796 156.61 46.2796 156.61C31.2163 150.807 28.8488 172.988 29.1654 178.14C29.4795 183.292 24.1035 184.975 16.2663 189.035C1.31346 196.781 0 207.155 0 207.155C0.116446 207.222 0.237956 207.302 0.367421 207.391C1.10925 206.133 2.63656 203.773 3.92446 203.418C3.87576 203.531 2.40246 206.666 1.85278 208.464C6.26424 211.82 14.5165 219.255 20.268 224.526C20.2424 223.496 20.2834 222.033 20.6597 221.261L21.3705 225.541C24.448 228.368 26.5703 230.36 26.5703 230.36C26.1901 226.196 45.403 204.221 55.4268 197.639C57.8669 194.047 58.7343 187.701 58.7992 187.202C58.378 192.234 57.5171 195.057 56.7478 196.646C65.2358 188.832 60.2942 160.68 54.772 157.541Z" fill="black"/>
<path d="M54.8337 197.967C54.8839 197.989 49.9939 200.53 46.3158 199.522C42.8559 198.58 40.5952 194.093 40.643 194.083C42.1083 193.792 42.5307 191.779 42.4996 183.126L43.1619 183.256L54.2993 185.462C54.2993 185.462 54.0459 188.967 54.0384 192.27C54.0309 195.043 54.199 197.671 54.8337 197.967Z" fill="#FFB27D"/>
<path d="M42.2393 161.174C42.2393 161.174 47.7335 155.325 54.631 160.875C54.631 160.875 50.6167 160.181 42.2393 161.174Z" fill="#1B435D"/>
<path d="M54.2986 185.462C54.2986 185.462 54.0453 188.967 54.0378 192.27C47.8054 192.094 44.5111 186.409 43.1613 183.256L54.2986 185.462Z" fill="#D68D5D"/>
<path d="M42.011 182.045C42.011 182.045 38.7449 176.883 37.9611 172.471C37.4013 169.32 39.006 157.642 50.7406 159.324C50.7406 159.324 54.1489 159.659 57.3525 161.824C59.9003 163.546 63.5772 167.259 59.4661 177.449L58.3981 180.892L42.011 182.045Z" fill="black"/>
<path d="M98.6898 387.311L92.7862 387.492L86.3957 387.688C86.3957 387.688 71.6354 371.255 63.3559 344.911C63.1625 344.299 62.9593 343.677 62.7435 343.05C58.2125 329.838 48.8189 313.253 43.8686 298.243C43.0807 295.852 42.3731 293.602 41.7383 291.471C41.5353 290.789 41.3369 290.118 41.1489 289.458C37.5007 276.784 36.4445 268.461 35.4709 259.57L71.2164 259.854C71.2164 259.854 76.9871 320.573 98.6898 387.311Z" fill="#80BDCC"/>
<path d="M66.2119 239.316C66.1217 256.325 68.7069 263.623 68.7069 263.623C68.7069 263.623 53.4023 271.401 35.2123 265.675C34.998 265.607 20.1507 262.22 20.1507 262.22C20.4554 261.53 23.1624 250.069 23.4589 249.437C27.2992 241.19 30.2155 237.573 30.6711 235.037C31.5159 230.304 31.5345 225.405 31.1133 220.786C30.0036 208.558 26.7026 198.406 26.7026 198.406C31.6589 197.28 36.4286 195.351 41.5872 193.415C42.7739 194.893 46.2728 196.385 49.4193 196.315C53.0426 196.236 54.174 194.703 54.0412 192.976C57.9025 195.127 60.9718 197.169 60.9718 197.169C64.2535 202.871 70.9091 208.406 71.391 217.15C71.5103 219.301 66.2143 238.839 66.2119 239.316Z" fill="#E7F1FD"/>
<path d="M35.471 241.211C33.9083 243.424 30.9127 256.865 23.4597 258.555C27.3 248.974 30.2162 244.774 30.6719 241.828C31.5167 236.331 31.5352 230.642 31.114 225.275C33.6091 220.902 35.471 217.905 35.471 217.905C35.667 217.196 39.436 205.544 40.6436 215.959C41.8488 226.379 37.2165 238.738 35.471 241.211Z" fill="#5F9AA8"/>
<path d="M56.3803 188.588C56.3803 188.588 41.6347 188.832 41.6246 179.646C41.6145 170.461 39.7043 164.306 49.1186 163.763C58.5329 163.218 60.366 166.721 61.115 169.788C61.8641 172.852 60.2158 188.289 56.3803 188.588Z" fill="#FFB27D"/>
<path d="M60.6766 164.679C58.401 161.921 56.6803 162.521 55.7143 163.351C52.5278 158.589 42.4565 165.475 42.4565 165.475C41.4702 172.066 36.7176 175.839 36.7176 175.839C36.7176 175.839 39.4053 177.5 45.6013 175.906C50.4776 174.653 54.016 167.712 55.3025 164.814C56.1791 165.593 58.0297 167.394 58.5842 169.158C59.3191 171.497 59.6498 176.312 61.0532 176.148C61.0532 176.148 64.0948 168.823 60.6766 164.679Z" fill="black"/>
<path d="M37.6392 396.553C37.6392 396.553 38.1252 399.913 36.8708 403.511C36.8708 403.511 35.8829 408.012 40.3153 408.096C44.7477 408.178 45.8351 407.761 45.3334 405C44.8316 402.24 43.8769 397.469 43.8769 397.469L37.6392 396.553Z" fill="#FFB27D"/>
<path d="M45.7516 410.305C45.7516 410.305 45.7468 410.307 45.7371 410.314H36.5661C36.5564 410.307 36.5516 410.305 36.5516 410.305C36.0501 407.949 36.8698 403.515 36.8698 403.515C41.8893 408.313 45.0307 403.395 45.0307 403.395C45.8456 405.447 45.7516 410.305 45.7516 410.305Z" fill="#13263C"/>
<path d="M111.19 405.661C111.19 405.661 103.018 396.381 100.509 391.764L94.4322 394.879L108.016 407.635L111.194 407.216L111.19 405.661Z" fill="#FFB27D"/>
<path d="M116.203 410.287H104.864C103.866 409.388 102.914 407.575 101.747 405.198C101.079 403.836 99.5818 403.086 98.0461 402.674V410.287H95.7003L93.528 402.192C92.0815 399.479 93.1681 396.991 94.1855 394.848C95.3692 394.846 98.8031 395.701 104.84 402.638C106.824 404.916 109.013 405.728 111.19 405.661C111.219 405.68 111.251 405.697 111.279 405.709C114.717 407.286 115.839 409.224 116.203 410.287Z" fill="#13263C"/>
<path d="M115.653 203.833C115.653 203.833 105.973 209.245 102.516 210.805C101.286 211.36 99.0587 212.396 96.7828 213.459C95.4086 214.101 94.0175 214.754 92.8145 215.321C90.7821 216.275 88.364 215.752 86.903 214.045C81.6619 207.926 68.0979 194.662 54.0901 192.998L54.0417 192.976C54.0417 192.976 54.0438 192.984 54.0479 192.993C54.0421 192.993 54.0361 192.991 54.0303 192.991L54.1077 193.143C54.8951 195.1 62.5741 214.286 62.8123 218.332C63.063 222.597 63.8157 288.082 63.8157 288.082C63.8157 288.082 63.314 291.093 69.0847 289.839C74.8552 288.583 76.3606 287.329 76.3606 287.329C76.3606 287.329 70.8408 246.935 72.3464 232.884C72.6418 230.128 72.3751 227.028 71.7586 223.829C80.2896 228.998 90.3481 231.295 90.3481 231.295C90.3481 231.295 94.0995 229.658 99.929 226.047C102.376 224.528 105.214 222.107 108.008 219.547C111.383 216.451 117.191 208.978 117.191 208.978L115.653 203.833Z" fill="#1B435D"/>
<path d="M92.7861 387.492L86.3955 387.688C86.3955 387.688 71.6352 371.255 63.3557 344.911C63.1624 344.299 62.9591 343.677 62.7434 343.05C58.2123 329.838 48.8187 313.253 43.8684 298.243C43.0805 295.852 42.3729 293.602 41.7382 291.471C41.5352 290.789 41.3367 290.118 41.1487 289.458L46.4124 285.465C46.4124 285.465 62.2166 311.057 67.109 335.14C71.3592 356.059 88.3801 381.231 92.7861 387.492Z" fill="#5F9AA8"/>
<path d="M46.962 337.382C47.0524 349.094 46.4603 376.022 44.9349 387.17H39.2746C36.146 387.17 34.5854 387.124 34.5854 387.124C30.759 367.743 28.0369 351.705 26.0547 337.886C24.429 326.545 22.9837 316.822 21.8722 308.451C20.7533 300.03 19.9756 292.976 19.6971 287.018C19.6542 286.081 19.6219 285.167 19.6041 284.28C19.5867 283.39 19.5816 282.524 19.5891 281.683L50.4747 278.674C50.0858 299.193 46.9118 330.576 46.962 337.382Z" fill="#80BDCC"/>
<path d="M39.2743 387.17C36.1457 387.17 34.5851 387.124 34.5851 387.124C30.7588 367.743 28.0366 351.705 26.0544 337.886C24.4287 326.545 22.9834 316.822 21.872 308.451C20.7531 300.03 19.9753 292.976 19.6968 287.018L31.0298 293.685C31.0298 293.685 23.7963 296.235 26.5563 315.556C29.3163 334.875 35.433 384.433 39.2743 387.17Z" fill="#5F9AA8"/>
<path d="M40.7329 286.828C40.7329 286.828 38.5576 294.688 31.0305 293.685C23.5037 292.682 12.8002 288.166 12.8002 288.166C12.8002 288.166 16.0169 278.002 20.0161 264.648C24.8586 248.483 30.8526 227.643 33.6774 214.499C34.4704 210.815 35.0123 207.741 35.2132 205.538L41.5873 193.416C41.5873 193.416 50.7688 214.318 51.2705 219.588C51.7724 224.856 40.7329 286.828 40.7329 286.828Z" fill="#1B435D"/>
<path d="M67.6143 225.468C63.9917 225.945 62.6025 227.869 62.155 230.466C61.9139 231.869 61.1916 233.253 60.5778 234.232C56.9692 234.425 48.3755 234.892 41.1554 235.35L40.5599 244.82C46.4909 244.083 53.7798 242.578 62.1678 239.707C62.8123 239.596 63.618 239.196 64.6269 238.369C69.8248 234.111 72.7755 226.982 72.7847 225.962C72.7938 224.94 71.2367 224.993 67.6143 225.468Z" fill="#FFB27D"/>
<path d="M40.3996 230.627C40.0635 239.157 38.0564 255.715 20.1598 264.58C20.1121 264.602 20.0643 264.628 20.0166 264.647C24.8591 248.482 30.8531 227.643 33.678 214.498C36.965 219.412 40.5828 225.928 40.3996 230.627Z" fill="#112A46"/>
<path d="M41.587 193.414C41.587 193.414 26.2783 194.499 22.5985 202.696C18.9188 210.891 17.7478 238.156 22.4312 246.184C22.4312 246.184 28.8792 248.021 40.2835 245.89C40.4233 245.864 40.5638 245.837 40.7049 245.808C40.7049 245.808 44.3432 236.902 41.0812 235.145C41.0812 235.145 31.4637 235.649 32.4671 232.469C33.4707 229.291 41.587 193.414 41.587 193.414Z" fill="#1B435D"/>
<path d="M126.031 197.4C117.794 196.342 115.716 203.832 115.716 203.832L117.253 208.977C119.792 209.329 122.014 208.666 124.061 205.737C126.108 202.808 126.671 203.934 127.972 201.754C129.738 198.798 126.976 197.697 126.031 197.4Z" fill="#FFB27D"/>
<path d="M102.516 210.805C101.286 211.359 99.0587 212.396 96.7828 213.459C98.0003 215.622 99.524 219.552 99.929 226.047C102.376 224.528 105.544 221.999 108.249 219.344C112.589 215.087 117.191 208.977 117.191 208.977L115.653 203.833C115.653 203.833 105.973 209.245 102.516 210.805Z" fill="#FFB27D"/>
<path d="M539.425 270.482C539.425 270.482 533.568 271.987 529.845 270.866C526.122 269.742 519.717 271.584 518.685 272.941C517.652 274.301 518.032 274.839 519.874 275.309C521.713 275.777 528.237 278.559 532.524 276.948C536.811 275.338 542.403 275.28 542.403 275.28L539.425 270.482Z" fill="#E49963"/>
<path d="M590.044 219.607C590.044 219.607 583.465 266.366 572.569 270.554C567.196 272.623 543.439 277.307 536.41 277.777C536.41 277.777 534.691 276.381 535.109 270.697C535.109 270.697 560.001 261.557 563.532 256.588C568.798 249.194 560.265 226.374 566.87 219.429C573.474 212.483 584.596 209.496 590.044 219.607Z" fill="#4A75CB"/>
<path d="M589.206 399.777V389.582H605.255C605.69 389.582 606.044 389.227 606.044 388.796V387.161C606.044 386.73 605.69 386.373 605.255 386.373H589.206V328.337C589.206 326.71 587.874 325.377 586.243 325.377H583.066C581.44 325.377 580.108 326.71 580.108 328.337V386.373H564.055C563.624 386.373 563.269 386.73 563.269 387.161V388.796C563.269 389.227 563.624 389.582 564.055 389.582H580.108V399.777C568.495 400.655 559.188 404.835 556.579 410.238H612.735C610.122 404.835 600.819 400.655 589.206 399.777Z" fill="#2B478B"/>
<path d="M587.822 318.122C585.905 321.379 583.686 324.429 581.397 327.317C574.329 336.244 566.631 343.605 565.29 350.563C565.022 351.949 564.601 353.441 564.045 355.016C563.485 356.609 562.792 358.285 561.994 360.016C558.995 366.535 554.504 373.838 550.026 380.478C542.281 391.953 535 401.529 535 401.529L521.641 400.96C522.176 399.622 528.003 383.775 535.794 364.411C538.96 356.549 542.323 348.188 545.569 340.124C546.003 339.046 546.438 337.975 546.864 336.912C547.854 334.444 548.831 332.014 549.788 329.649C557.102 311.466 562.93 296.986 562.93 296.986C562.93 296.986 592.179 285.907 595.216 293.087C597.718 299.006 595.679 304.804 587.822 318.122Z" fill="#13263C"/>
<path d="M534.583 399.101C534.583 399.101 533.897 410.121 531.767 410.281C531.482 410.302 520.95 410.302 520.95 410.302L507.507 410.223C507.507 410.223 507.594 406.985 511.525 406.3C515.455 405.615 522.03 402.853 524.414 397.66C526.915 392.196 534.583 399.101 534.583 399.101Z" fill="#163560"/>
<path d="M565.51 367.615C565.51 367.615 574.799 373.584 573.899 375.523C573.778 375.781 568.643 384.976 568.643 384.976L562.023 396.676C562.023 396.676 559.237 395.02 560.553 391.256C561.873 387.491 562.669 380.402 559.29 375.79C555.742 370.942 565.51 367.615 565.51 367.615Z" fill="#163560"/>
<path d="M552.939 291.728C552.939 291.728 516.23 314.595 512.134 329.959C508.038 345.326 560.964 378.108 560.964 378.108C560.964 378.108 566.77 372.987 567.794 369.23C567.794 369.23 543.87 340.567 538.678 334.142C535.489 330.196 585.808 320.482 591.952 310.921C598.1 301.359 595.897 293.314 595.897 293.314L552.939 291.728Z" fill="#1B435D"/>
<path d="M622.218 321.088H547.087C545.588 321.088 544.359 322.317 544.359 323.819V338.846C544.359 340.348 545.588 341.578 547.087 341.578H622.218C623.721 341.578 624.951 340.348 624.951 338.846V323.819C624.951 322.317 623.721 321.088 622.218 321.088Z" fill="#FDB44B"/>
<path d="M569.914 211.591C566.308 213.823 564.32 216.658 564.32 216.658C573.116 218.935 587.694 210.783 587.694 210.783C587.694 210.783 582.034 206.981 579.935 198.623C579.828 198.201 579.734 197.769 579.647 197.326C579.376 195.919 579.203 194.395 579.17 192.75L575.132 196.369L568.415 202.387C568.415 202.387 568.568 204.886 569.407 209.18C569.555 209.93 569.72 210.735 569.914 211.591Z" fill="#E49963"/>
<path d="M596.964 253.077C595.705 270.021 597.825 295.779 596.395 300.242C595.161 304.089 580.646 301.811 575.039 300.526C572.964 300.051 570.451 299.371 567.854 298.569C560.607 296.324 552.716 293.122 551.867 290.743C551.834 290.651 551.805 290.56 551.788 290.47C551.713 290.126 551.729 289.8 551.805 289.472C552.085 288.262 553.176 286.95 553.302 283.949C553.444 280.598 553.423 276.654 553.553 272.41C553.557 271.93 553.565 271.41 553.615 270.935V270.761C553.62 270.669 553.62 270.58 553.624 270.489C553.745 265.758 553.992 260.782 554.28 255.85C554.464 252.749 554.673 249.683 554.916 246.741C555.547 239.152 556.4 232.404 557.525 228.137C559.369 221.181 563.43 216.644 567.127 213.319L569.799 211.026C572.78 211.677 576.31 211.245 579.496 209.734C582.951 208.095 584.142 206.92 584.745 207.364C592.719 213.514 598.452 232.365 596.964 253.077Z" fill="#78BBE6"/>
<path d="M567.892 298.602C560.65 296.358 552.755 293.156 551.909 290.777C551.877 290.685 551.848 290.594 551.828 290.504C551.836 290.172 551.84 289.839 551.844 289.506C552.13 288.296 553.216 286.984 553.343 283.983C553.486 280.632 553.465 276.688 553.592 272.444C553.596 271.965 553.604 271.444 553.657 270.969V270.795C553.661 270.704 553.661 270.614 553.666 270.523L581.028 258.114C581.028 258.114 582.605 280.169 567.892 298.602Z" fill="#4A75CB"/>
<path d="M568.414 202.388C568.414 202.388 568.564 204.887 569.407 209.181C575.969 207.062 578.94 201.137 579.934 198.624C580.219 197.914 580.341 197.475 580.341 197.475C580.341 197.475 580.088 197.42 579.649 197.327C578.725 197.132 576.991 196.763 575.134 196.37L568.414 202.388Z" fill="#D68D5D"/>
<path d="M565.76 202.32C565.76 202.32 580.171 203.947 581.048 194.956C581.92 185.966 584.369 180.121 575.204 178.703C566.042 177.285 563.917 180.541 562.897 183.471C561.873 186.401 562.033 201.666 565.76 202.32Z" fill="#E49963"/>
<path d="M580.983 195.578C580.983 195.578 580.067 183.644 566.952 182.408C557.967 181.562 562.975 173.828 563.933 172.595C563.933 172.595 570.816 173.538 577.873 174.704C592.684 177.152 582.434 193.72 580.983 195.578Z" fill="black"/>
<path d="M511.225 282.199L509.963 282.609L499.231 249.577L500.493 249.167L511.225 282.199Z" fill="#4A75CB"/>
<path d="M546.353 279.65L509.915 280.428L509.965 282.608L546.4 281.832L546.353 279.65Z" fill="#4A75CB"/>
<path d="M542.439 277.672C542.439 277.672 536.784 279.812 532.963 279.106C529.135 278.402 522.971 280.941 522.095 282.404C521.219 283.865 521.655 284.359 523.538 284.622C525.418 284.885 532.211 286.932 536.294 284.858C540.378 282.785 545.928 282.11 545.928 282.11L542.439 277.672Z" fill="#E49963"/>
<path d="M587.139 221.527C587.139 221.527 585.753 268.728 575.39 274.089C570.274 276.737 547.179 284.013 540.246 285.254C540.246 285.254 538.383 284.056 538.173 278.362C538.173 278.362 561.902 266.534 564.867 261.206C569.283 253.274 558.291 231.535 564.089 223.904C569.884 216.271 580.609 212.079 587.139 221.527Z" fill="#78BBE6"/>
<path d="M746.617 411.744H7.76406C7.36765 411.744 7.04309 411.418 7.04309 411.023C7.04309 410.625 7.36765 410.302 7.76406 410.302H746.617C747.009 410.302 747.335 410.625 747.335 411.023C747.335 411.418 747.009 411.744 746.617 411.744Z" fill="#202F4E"/>
</svg>
