<svg width="30" height="30" viewBox="0 0 30 30" fill="none" xmlns="http://www.w3.org/2000/svg">
<path d="M15 0C6.71652 0 0 6.71652 0 15C0 23.2835 6.71652 30 15 30C23.2835 30 30 23.2835 30 15C30 6.71652 23.2835 0 15 0ZM15 27.4554C8.12277 27.4554 2.54464 21.8772 2.54464 15C2.54464 8.12277 8.12277 2.54464 15 2.54464C21.8772 2.54464 27.4554 8.12277 27.4554 15C27.4554 21.8772 21.8772 27.4554 15 27.4554ZM16.5971 14.2232L15.7467 14.0257V9.52902C17.019 9.70312 17.8058 10.5 17.9397 11.4777C17.9565 11.6116 18.0703 11.7087 18.2042 11.7087H19.7076C19.865 11.7087 19.9888 11.5714 19.9754 11.4141C19.7712 9.32812 18.0536 7.98884 15.76 7.75781V6.66295C15.76 6.51562 15.6395 6.39509 15.4922 6.39509H14.5513C14.404 6.39509 14.2835 6.51562 14.2835 6.66295V7.76786C11.9129 7.99888 10.058 9.30804 10.058 11.7522C10.058 14.0156 11.7254 15.1071 13.4766 15.5257L14.3036 15.7366V20.5145C12.8237 20.317 11.9933 19.5268 11.8225 18.4621C11.8025 18.3348 11.6886 18.2411 11.558 18.2411H10.0112C9.85379 18.2411 9.72991 18.375 9.7433 18.5324C9.89397 20.3739 11.2902 22.0681 14.2701 22.2857V23.3371C14.2701 23.4844 14.3906 23.6049 14.5379 23.6049H15.4888C15.6362 23.6049 15.7567 23.4844 15.7567 23.3337L15.75 22.2723C18.3717 22.0413 20.2467 20.6384 20.2467 18.1205C20.2433 15.7969 18.7667 14.7589 16.5971 14.2232ZM14.3002 13.6808C14.1127 13.6272 13.9554 13.577 13.798 13.5134C12.6663 13.1049 12.1406 12.4453 12.1406 11.5949C12.1406 10.3795 13.0614 9.68638 14.3002 9.52902V13.6808ZM15.7467 20.5246V16.048C15.8504 16.0781 15.9442 16.1016 16.0413 16.1217C17.625 16.6038 18.1574 17.2734 18.1574 18.3013C18.1574 19.6105 17.173 20.3973 15.7467 20.5246Z" fill="#838383"/>
</svg>
