<svg width="30" height="30" viewBox="0 0 30 30" fill="none" xmlns="http://www.w3.org/2000/svg">
<path d="M15 16.25C18.4462 16.25 21.25 13.4462 21.25 10C21.25 6.55375 18.4462 3.75 15 3.75C11.5538 3.75 8.75 6.55375 8.75 10C8.75 13.4462 11.5538 16.25 15 16.25ZM15 6.25C17.0675 6.25 18.75 7.9325 18.75 10C18.75 12.0675 17.0675 13.75 15 13.75C12.9325 13.75 11.25 12.0675 11.25 10C11.25 7.9325 12.9325 6.25 15 6.25ZM23.75 21.75V22.8325C23.75 23.9437 23.3438 25.0088 22.6063 25.8325C22.36 26.1088 22.0175 26.2488 21.675 26.2488C21.3775 26.2488 21.0787 26.1438 20.8412 25.93C20.3275 25.4688 20.2837 24.6788 20.7437 24.165C21.0712 23.8 21.25 23.3262 21.25 22.8325V21.75C21.25 20.3325 20.3125 19.1075 18.9713 18.77C18.8075 18.7312 18.6387 18.7488 18.5037 18.8263C16.3187 20.0425 13.6675 20.0337 11.5112 18.835C11.3625 18.75 11.1912 18.7287 11.0325 18.77C9.68749 19.1075 8.75 20.3325 8.75 21.75V22.8325C8.75 23.3275 8.93004 23.8 9.25629 24.165C9.71629 24.6788 9.67253 25.4688 9.15878 25.93C8.64628 26.39 7.85747 26.3475 7.39372 25.8325C6.65622 25.0088 6.25 23.9425 6.25 22.8325V21.75C6.25 19.1838 7.96497 16.9613 10.4212 16.3463C11.2012 16.145 12.0475 16.2613 12.7387 16.6588C14.125 17.4275 15.8588 17.4362 17.275 16.6499C17.9538 16.2599 18.8013 16.1525 19.5825 16.3463C22.035 16.9613 23.75 19.185 23.75 21.75ZM21.3225 4.79752C21.5512 4.14627 22.2688 3.80625 22.9163 4.03625C24.9113 4.74 26.25 6.635 26.25 8.75C26.25 10.1712 25.6425 11.5299 24.5837 12.4762C24.3462 12.6899 24.0462 12.795 23.75 12.795C23.4075 12.795 23.065 12.6549 22.8188 12.3787C22.3588 11.8649 22.4025 11.0737 22.9163 10.6137C23.4463 10.14 23.75 9.46 23.75 8.75C23.75 7.6925 23.08 6.74505 22.0837 6.3913C21.4325 6.16255 21.0912 5.44752 21.3225 4.79752ZM27.5 18.5425V19.445C27.5 20.1363 26.9412 20.695 26.25 20.695C25.5588 20.695 25 20.1363 25 19.445V18.5425C25 17.4575 24.2838 16.5188 23.2575 16.2613C22.5875 16.0925 22.1813 15.4138 22.3488 14.745C22.5175 14.0738 23.2025 13.6662 23.865 13.8362C26.0062 14.3737 27.5 16.3087 27.5 18.5425ZM5.41626 13.0325C4.35751 12.0838 3.75 10.7249 3.75 9.30618C3.75 7.19243 5.08999 5.29619 7.08374 4.59244C7.73124 4.36244 8.44877 4.70245 8.67752 5.3537C8.90877 6.00495 8.56751 6.71873 7.91626 6.94748C6.92001 7.29998 6.25 8.24868 6.25 9.30618C6.25 10.0162 6.55374 10.695 7.08374 11.17C7.59749 11.6313 7.64124 12.4213 7.18124 12.935C6.93374 13.2113 6.59253 13.3513 6.24878 13.3513C5.95253 13.3513 5.65376 13.2463 5.41626 13.0325ZM6.74377 16.8163C5.71752 17.0738 5 18.0124 5 19.0974V20C5 20.6912 4.44 21.25 3.75 21.25C3.06 21.25 2.5 20.6912 2.5 20V19.0974C2.5 16.8649 3.99373 14.9287 6.13373 14.3912C6.79998 14.2249 7.48249 14.6288 7.64999 15.2988C7.81874 15.9688 7.41252 16.6475 6.74377 16.8163Z" fill="#838383"/>
</svg>
