<svg width="642" height="427" viewBox="0 0 642 427" fill="none" xmlns="http://www.w3.org/2000/svg">
<path d="M569.578 188.312C543.215 165.824 511.433 30.2023 402.554 100.839C346.303 137.333 251.448 69.5086 172.938 92.9353C100.836 114.45 93.8855 185.332 100.862 208.43C114.954 255.086 71.0995 262.028 30.4169 282.074C-33.3982 313.519 13.8948 425.198 74.1816 425.726C134.468 426.257 499.225 425.726 499.225 425.726C499.225 425.726 586.909 423.725 623.328 375.386C662.519 323.371 637.675 246.4 569.578 188.312Z" fill="#F3F9FF"/>
<path d="M211.105 413.214C211.105 413.214 211.867 425.528 214.252 425.706C214.569 425.728 226.337 425.728 226.337 425.728L241.358 425.641C241.358 425.641 241.259 422.023 236.868 421.256C232.476 420.491 225.127 417.406 222.468 411.603C219.669 405.496 211.105 413.214 211.105 413.214Z" fill="#163560"/>
<path d="M205.691 269.493C205.691 269.493 212.237 271.174 216.397 269.919C220.556 268.666 227.717 270.724 228.87 272.241C230.023 273.757 229.6 274.361 227.542 274.884C225.484 275.409 218.194 278.518 213.404 276.718C208.614 274.919 202.364 274.854 202.364 274.854L205.691 269.493Z" fill="#E49963"/>
<path d="M149.131 212.642C149.131 212.642 156.483 264.895 168.656 269.574C174.663 271.883 201.21 277.117 209.063 277.645C209.063 277.645 210.986 276.083 210.517 269.73C210.517 269.73 182.704 259.52 178.753 253.968C172.872 245.703 182.403 220.207 175.025 212.443C167.646 204.681 155.218 201.346 149.131 212.642Z" fill="#568EFF"/>
<path d="M150.07 413.971V402.578H132.134C131.65 402.578 131.254 402.182 131.254 401.697V399.874C131.254 399.389 131.65 398.993 132.134 398.993H150.07V334.143C150.07 332.322 151.559 330.835 153.379 330.835H156.928C158.748 330.835 160.237 332.322 160.237 334.143V398.993H178.172C178.656 398.993 179.052 399.389 179.052 399.874V401.697C179.052 402.182 178.656 402.578 178.172 402.578H160.237V413.971C173.213 414.952 183.611 419.623 186.527 425.66H123.779C126.696 419.623 137.093 414.952 150.07 413.971Z" fill="#A6C7F9"/>
<path d="M151.61 322.726C153.754 326.363 156.234 329.773 158.791 333.001C166.692 342.977 175.293 351.201 176.792 358.974C177.09 360.525 177.563 362.193 178.181 363.949C178.807 365.733 179.58 367.605 180.473 369.539C183.826 376.824 188.84 384.984 193.847 392.403C202.501 405.227 210.64 415.927 210.64 415.927L225.564 415.291C224.966 413.796 218.458 396.089 209.748 374.451C206.213 365.665 202.453 356.323 198.825 347.311C198.342 346.107 197.859 344.908 197.38 343.72C196.271 340.964 195.18 338.249 194.114 335.606C185.937 315.288 179.425 299.108 179.425 299.108C179.425 299.108 146.746 286.729 143.352 294.749C140.553 301.365 142.833 307.844 151.61 322.726Z" fill="#E58638"/>
<path d="M176.546 378.031C176.546 378.031 166.165 384.701 167.173 386.867C167.307 387.155 173.043 397.43 173.043 397.43L180.442 410.504C180.442 410.504 183.555 408.653 182.083 404.445C180.61 400.24 179.722 392.317 183.492 387.166C187.459 381.746 176.546 378.031 176.546 378.031Z" fill="#163560"/>
<path d="M190.592 293.233C190.592 293.233 231.612 318.782 236.189 335.954C240.769 353.125 181.625 389.756 181.625 389.756C181.625 389.756 175.138 384.033 173.993 379.836C173.993 379.836 200.728 347.807 206.525 340.625C210.087 336.218 153.866 325.361 146.998 314.68C140.129 303.995 142.588 295.005 142.588 295.005L190.592 293.233Z" fill="#FDB44B"/>
<path d="M113.178 326.042H197.129C198.808 326.042 200.181 327.416 200.181 329.094V345.883C200.181 347.564 198.808 348.938 197.129 348.938H113.178C111.499 348.938 110.125 347.564 110.125 345.883V329.094C110.125 327.416 111.499 326.042 113.178 326.042Z" fill="#1B435D"/>
<path d="M171.625 203.687C175.654 206.182 177.873 209.35 177.873 209.35C168.047 211.891 151.756 202.785 151.756 202.785C151.756 202.785 158.081 198.534 160.425 189.196C160.543 188.725 160.652 188.243 160.747 187.747C161.054 186.174 161.245 184.471 161.279 182.634L165.793 186.678L173.299 193.402C173.299 193.402 173.129 196.193 172.19 200.993C172.027 201.831 171.839 202.728 171.625 203.687Z" fill="#E49963"/>
<path d="M141.396 250.045C142.804 268.978 140.436 297.758 142.033 302.745C143.411 307.047 159.629 304.501 165.896 303.065C168.216 302.532 171.026 301.775 173.928 300.875C182.023 298.37 190.843 294.79 191.79 292.133C191.826 292.028 191.858 291.926 191.877 291.829C191.964 291.441 191.945 291.08 191.86 290.714C191.544 289.358 190.329 287.893 190.186 284.542C190.026 280.797 190.05 276.387 189.909 271.645C189.902 271.112 189.895 270.53 189.837 269.999L189.834 269.805C189.832 269.703 189.829 269.603 189.827 269.501C189.691 264.213 189.414 258.655 189.094 253.14C188.89 249.679 188.655 246.249 188.383 242.965C187.677 234.485 186.726 226.944 185.466 222.176C183.409 214.404 178.871 209.334 174.741 205.619L171.754 203.057C168.42 203.784 164.479 203.302 160.915 201.613C157.057 199.781 155.725 198.469 155.052 198.962C146.142 205.837 139.734 226.901 141.396 250.045Z" fill="#78BBE6"/>
<path d="M173.882 300.913C181.976 298.407 190.797 294.827 191.743 292.171C191.78 292.066 191.811 291.963 191.831 291.866C191.826 291.494 191.821 291.123 191.814 290.751C191.498 289.398 190.283 287.933 190.14 284.579C189.979 280.834 190.003 276.424 189.863 271.683C189.855 271.149 189.848 270.568 189.79 270.037L189.787 269.843C189.785 269.74 189.783 269.641 189.78 269.538L159.204 255.672C159.204 255.672 157.442 280.314 173.882 300.913Z" fill="#568EFF"/>
<path d="M173.298 193.402C173.298 193.402 173.128 196.192 172.189 200.993C164.859 198.625 161.534 192.003 160.423 189.196C160.108 188.401 159.971 187.911 159.971 187.911C159.971 187.911 160.255 187.852 160.745 187.747C161.776 187.529 163.716 187.116 165.792 186.677L173.298 193.402Z" fill="#D68D5D"/>
<path d="M176.266 193.329C176.266 193.329 160.162 195.144 159.185 185.099C158.209 175.053 155.473 168.522 165.713 166.938C175.953 165.354 178.327 168.991 179.468 172.267C180.61 175.54 180.43 192.599 176.266 193.329Z" fill="#E49963"/>
<path d="M159.255 185.794C159.255 185.794 160.276 172.459 174.935 171.077C184.975 170.131 179.377 161.489 178.307 160.112C178.307 160.112 170.615 161.165 162.73 162.469C146.18 165.204 157.63 183.717 159.255 185.794Z" fill="#2B478B"/>
<path d="M237.204 282.586L238.613 283.044L250.607 246.134L249.198 245.676L237.204 282.586Z" fill="#568EFF"/>
<path d="M197.949 279.738L238.665 280.609L238.613 283.044L197.897 282.174L197.949 279.738Z" fill="#568EFF"/>
<path d="M202.322 277.524C202.322 277.524 208.642 279.916 212.915 279.13C217.188 278.343 224.076 281.177 225.057 282.812C226.035 284.447 225.547 285 223.446 285.293C221.342 285.587 213.753 287.874 209.192 285.557C204.628 283.241 198.424 282.486 198.424 282.486L202.322 277.524Z" fill="#E49963"/>
<path d="M152.376 214.785C152.376 214.785 153.922 267.528 165.506 273.522C171.221 276.48 197.029 284.611 204.775 285.998C204.775 285.998 206.86 284.659 207.094 278.293C207.094 278.293 180.576 265.079 177.261 259.126C172.328 250.262 184.612 225.971 178.134 217.442C171.656 208.915 159.672 204.23 152.376 214.785Z" fill="#78BBE6"/>
<path d="M299.976 340.76H510.1C524.762 340.76 536.651 328.872 536.651 314.208V26.9076C536.651 12.2461 524.762 0.356964 510.1 0.356964H299.976C285.312 0.356964 273.424 12.2461 273.424 26.9076V314.208C273.424 328.872 285.312 340.76 299.976 340.76Z" fill="#D5EEFF"/>
<path d="M299.287 306.3H511.216V36.0338H299.287V306.3Z" fill="#F3F9FF"/>
<path d="M481.163 294.44C474.985 294.44 469.98 289.432 469.98 283.257V128.659C469.98 122.485 474.985 117.48 481.163 117.48C487.337 117.48 492.342 122.485 492.342 128.659V283.257C492.342 289.432 487.337 294.44 481.163 294.44Z" fill="#FDB44B"/>
<path d="M444.527 294.439C438.349 294.439 433.345 289.431 433.345 283.256V79.3335C433.345 73.1552 438.349 68.1506 444.527 68.1506C450.703 68.1506 455.707 73.1552 455.707 79.3335V283.256C455.707 289.431 450.703 294.439 444.527 294.439Z" fill="#FDB44B"/>
<path d="M404.547 294.44C398.371 294.44 393.366 289.432 393.366 283.257V171.453C393.366 165.28 398.371 160.272 404.547 160.272C410.723 160.272 415.729 165.28 415.729 171.453V283.257C415.729 289.432 410.723 294.44 404.547 294.44Z" fill="#FDB44B"/>
<path d="M365.648 294.44C359.471 294.44 354.464 289.432 354.464 283.257V109.546C354.464 103.368 359.471 98.3638 365.648 98.3638C371.823 98.3638 376.828 103.368 376.828 109.546V283.257C376.828 289.432 371.823 294.44 365.648 294.44Z" fill="#FDB44B"/>
<path d="M337.725 197.714V283.256C337.725 289.43 332.719 294.438 326.545 294.438C320.367 294.438 315.362 289.43 315.362 283.256V197.714C315.362 191.536 320.367 186.531 326.545 186.531C332.719 186.531 337.725 191.536 337.725 197.714Z" fill="#FDB44B"/>
<path d="M355.525 84.515H374.465C375.541 84.515 376.423 85.3967 376.423 86.4728C376.423 87.5517 375.541 88.4334 374.465 88.4334H355.525C354.449 88.4334 353.565 87.5517 353.565 86.4728C353.565 85.3967 354.449 84.515 355.525 84.515Z" fill="#A6C7F9"/>
<path d="M370.153 91.6425H374.466C375.542 91.6425 376.424 92.5243 376.424 93.6031C376.424 94.6792 375.542 95.5609 374.466 95.5609H370.153C369.074 95.5609 368.19 94.6792 368.19 93.6031C368.19 92.5243 369.074 91.6425 370.153 91.6425Z" fill="#A6C7F9"/>
<path d="M433.566 54.444H452.505C453.582 54.444 454.464 55.3255 454.464 56.4032C454.464 57.4809 453.582 58.3623 452.505 58.3623H433.566C432.489 58.3623 431.604 57.4809 431.604 56.4032C431.604 55.3255 432.489 54.444 433.566 54.444Z" fill="#A6C7F9"/>
<path d="M448.194 61.5725H452.504C453.582 61.5725 454.463 62.454 454.463 63.5316C454.463 64.6093 453.582 65.4908 452.504 65.4908H448.194C447.116 65.4908 446.231 64.6093 446.231 63.5316C446.231 62.454 447.116 61.5725 448.194 61.5725Z" fill="#A6C7F9"/>
<path d="M471.448 103.737H490.385C491.464 103.737 492.344 104.617 492.344 105.696C492.344 106.773 491.464 107.656 490.385 107.656H471.448C470.368 107.656 469.488 106.773 469.488 105.696C469.488 104.617 470.368 103.737 471.448 103.737Z" fill="#A6C7F9"/>
<path d="M486.072 110.868H490.383C491.463 110.868 492.343 111.747 492.343 112.827C492.343 113.903 491.463 114.786 490.383 114.786H486.072C484.992 114.786 484.113 113.903 484.113 112.827C484.113 111.747 484.992 110.868 486.072 110.868Z" fill="#A6C7F9"/>
<path d="M395.076 146.551H414.013C415.092 146.551 415.975 147.434 415.975 148.513C415.975 149.589 415.092 150.471 414.013 150.471H395.076C393.997 150.471 393.117 149.589 393.117 148.513C393.117 147.434 393.997 146.551 395.076 146.551Z" fill="#A6C7F9"/>
<path d="M409.701 153.68H414.014C415.093 153.68 415.976 154.562 415.976 155.638C415.976 156.717 415.093 157.6 414.014 157.6H409.701C408.625 157.6 407.743 156.717 407.743 155.638C407.743 154.562 408.625 153.68 409.701 153.68Z" fill="#A6C7F9"/>
<path d="M317.075 172.731H336.014C337.092 172.731 337.973 173.612 337.973 174.689C337.973 175.767 337.092 176.65 336.014 176.65H317.075C315.998 176.65 315.114 175.767 315.114 174.689C315.114 173.612 315.998 172.731 317.075 172.731Z" fill="#A6C7F9"/>
<path d="M331.701 179.859H336.014C337.092 179.859 337.973 180.742 337.973 181.82C337.973 182.898 337.092 183.779 336.014 183.779H331.701C330.623 183.779 329.74 182.898 329.74 181.82C329.74 180.742 330.623 179.859 331.701 179.859Z" fill="#A6C7F9"/>
<path d="M326.545 155.933C324.194 155.933 322.278 157.845 322.278 160.197C322.278 162.549 324.194 164.462 326.545 164.462C328.897 164.462 330.81 162.549 330.81 160.197C330.81 157.845 328.897 155.933 326.545 155.933ZM326.545 167.156C322.706 167.156 319.584 164.033 319.584 160.197C319.584 156.358 322.706 153.239 326.545 153.239C330.382 153.239 333.504 156.358 333.504 160.197C333.504 164.033 330.382 167.156 326.545 167.156Z" fill="#2B478B"/>
<path d="M323.582 155.933C323.237 155.933 322.893 155.801 322.629 155.537L301.715 134.623H131.805C131.061 134.623 130.458 134.02 130.458 133.276C130.458 132.533 131.061 131.929 131.805 131.929H302.83L324.533 153.632C325.061 154.157 325.061 155.011 324.533 155.537C324.272 155.801 323.927 155.933 323.582 155.933Z" fill="#2B478B"/>
<path d="M366.567 302.679C364.216 302.679 362.298 304.592 362.298 306.944C362.298 309.296 364.216 311.211 366.567 311.211C368.92 311.211 370.832 309.296 370.832 306.944C370.832 304.592 368.92 302.679 366.567 302.679ZM366.567 313.905C362.728 313.905 359.605 310.783 359.605 306.944C359.605 303.108 362.728 299.985 366.567 299.985C370.403 299.985 373.526 303.108 373.526 306.944C373.526 310.783 370.403 313.905 366.567 313.905Z" fill="#2B478B"/>
<path d="M558.61 335.213H390.279L368.574 313.51C368.052 312.985 368.052 312.133 368.574 311.605C369.099 311.08 369.953 311.08 370.479 311.605L391.392 332.518H558.61C559.356 332.518 559.959 333.122 559.959 333.865C559.959 334.612 559.356 335.213 558.61 335.213Z" fill="#2B478B"/>
<path d="M443.551 37.8304C441.198 37.8304 439.282 39.746 439.282 42.099C439.282 44.4488 441.198 46.3613 443.551 46.3613C445.901 46.3613 447.813 44.4488 447.813 42.099C447.813 39.746 445.901 37.8304 443.551 37.8304ZM443.551 49.0559C439.71 49.0559 436.588 45.9334 436.588 42.099C436.588 38.2614 439.71 35.1389 443.551 35.1389C447.385 35.1389 450.508 38.2614 450.508 42.099C450.508 45.9334 447.385 49.0559 443.551 49.0559Z" fill="#2B478B"/>
<path d="M440.588 37.8285C440.242 37.8285 439.897 37.6966 439.633 37.4359L418.721 16.5207H248.811C248.064 16.5207 247.464 15.9176 247.464 15.1732C247.464 14.4289 248.064 13.8258 248.811 13.8258H419.836L441.539 35.5294C442.064 36.057 442.064 36.9082 441.539 37.4359C441.276 37.6966 440.933 37.8285 440.588 37.8285Z" fill="#2B478B"/>
<path d="M245.359 128.813H133.735C131.85 128.813 130.322 127.286 130.322 125.4C130.322 123.517 131.85 121.989 133.735 121.989H245.359C247.242 121.989 248.77 123.517 248.77 125.4C248.77 127.286 247.242 128.813 245.359 128.813Z" fill="#78BBE6"/>
<path d="M245.36 118.038H176.839C174.954 118.038 173.427 116.51 173.427 114.624C173.427 112.741 174.954 111.214 176.839 111.214H245.36C247.243 111.214 248.77 112.741 248.77 114.624C248.77 116.51 247.243 118.038 245.36 118.038Z" fill="#78BBE6"/>
<path d="M245.36 107.261H176.839C174.954 107.261 173.427 105.734 173.427 103.848C173.427 101.965 174.954 100.437 176.839 100.437H245.36C247.243 100.437 248.77 101.965 248.77 103.848C248.77 105.734 247.243 107.261 245.36 107.261Z" fill="#78BBE6"/>
<path d="M361.583 10.0125H249.96C248.074 10.0125 246.547 8.48521 246.547 6.60222C246.547 4.71625 248.074 3.18893 249.96 3.18893H361.583C363.469 3.18893 364.996 4.71625 364.996 6.60222C364.996 8.48521 363.469 10.0125 361.583 10.0125Z" fill="#78BBE6"/>
<path d="M468.497 368.935C468.497 355.519 457.62 344.643 444.206 344.643C430.793 344.643 419.916 355.519 419.916 368.935C419.916 382.348 430.793 393.223 444.206 393.223C457.62 393.223 468.497 382.348 468.497 368.935Z" fill="#1B435D"/>
<path d="M444.207 348.398C455.549 348.398 464.74 357.593 464.74 368.934C464.74 374.546 462.49 379.63 458.839 383.336L444.207 368.934L425.019 376.257C424.153 373.983 423.674 371.515 423.674 368.934C423.674 357.593 432.868 348.398 444.207 348.398Z" fill="white"/>
<path d="M447.207 358.507H455.948C456.29 358.507 456.571 358.788 456.571 359.133C456.571 359.475 456.29 359.758 455.948 359.758H447.207C446.865 359.758 446.581 359.475 446.581 359.133C446.581 358.788 446.865 358.507 447.207 358.507Z" fill="#1B435D"/>
<path d="M447.207 360.485H455.948C456.29 360.485 456.571 360.765 456.571 361.11C456.571 361.452 456.29 361.735 455.948 361.735H447.207C446.865 361.735 446.581 361.452 446.581 361.11C446.581 360.765 446.865 360.485 447.207 360.485Z" fill="#1B435D"/>
<path d="M452.341 362.462H455.948C456.291 362.462 456.572 362.742 456.572 363.087C456.572 363.429 456.291 363.709 455.948 363.709H452.341C451.995 363.709 451.714 363.429 451.714 363.087C451.714 362.742 451.995 362.462 452.341 362.462Z" fill="#1B435D"/>
<path d="M422.935 357.532L432.543 347.923H422.935V357.532Z" fill="#1B435D"/>
<path d="M550.532 368.934C550.532 355.519 539.657 344.643 526.24 344.643C512.822 344.643 501.948 355.519 501.948 368.934C501.948 382.348 512.822 393.223 526.24 393.223C539.657 393.223 550.532 382.348 550.532 368.934Z" fill="#1B435D"/>
<path d="M505.704 368.933C505.704 357.591 514.898 348.397 526.24 348.397C537.578 348.397 546.772 357.591 546.772 368.933C546.772 380.272 537.578 389.467 526.24 389.467C521.552 389.467 517.24 387.899 513.785 385.259L526.24 368.933L507.047 376.255C506.181 373.981 505.704 371.514 505.704 368.933Z" fill="white"/>
<path d="M529.406 358.508H538.147C538.491 358.508 538.771 358.788 538.771 359.133C538.771 359.475 538.491 359.758 538.147 359.758H529.406C529.066 359.758 528.782 359.475 528.782 359.133C528.782 358.788 529.066 358.508 529.406 358.508Z" fill="#1B435D"/>
<path d="M529.406 360.485H538.147C538.491 360.485 538.771 360.765 538.771 361.11C538.771 361.452 538.491 361.735 538.147 361.735H529.406C529.066 361.735 528.782 361.452 528.782 361.11C528.782 360.765 529.066 360.485 529.406 360.485Z" fill="#1B435D"/>
<path d="M534.541 362.461H538.148C538.491 362.461 538.771 362.742 538.771 363.087C538.771 363.429 538.491 363.709 538.148 363.709H534.541C534.193 363.709 533.913 363.429 533.913 363.087C533.913 362.742 534.193 362.461 534.541 362.461Z" fill="#1B435D"/>
<path d="M505.102 357.531L514.711 347.922H505.102V357.531Z" fill="#1B435D"/>
<path d="M615.167 426.533H53.5707C53.128 426.533 52.7653 426.172 52.7653 425.731C52.7653 425.286 53.128 424.922 53.5707 424.922H615.167C615.609 424.922 615.971 425.286 615.971 425.731C615.971 426.172 615.609 426.533 615.167 426.533Z" fill="#202F4E"/>
</svg>
