<svg xmlns="http://www.w3.org/2000/svg" viewBox="0 0 1561.1 508.19"><defs><style>.cls-1{fill:#fbb44e;}.cls-2{fill:#1f455f;}</style></defs><g id="Layer_2" data-name="Layer 2"><g id="Layer_1-2" data-name="Layer 1"><path class="cls-1" d="M163.93,0c43,1.38,83.5,18.72,114.59,55.82,7.84,9.35,7.86,20.19,3.26,31-4.44,10.44-12.64,16.61-23.93,18-12.31,1.52-21.91-3.21-30.48-12.34-16.94-18-38.19-28.16-63-29.61-31-1.8-58,7.74-78.94,31C61.32,120.66,56,151.38,69.33,185.09c5.21,13.2,13.42,24.39,22.91,34.78,5.94,6.51,11.76,13.12,17.6,19.72,3.93,4.44,6.3,4.73,11,1q49.49-39.63,98.91-79.32a29.67,29.67,0,0,1,34.43-1.46c9.69,6.42,14.19,19.18,10.63,30.83a32.27,32.27,0,0,1-11.22,16.58c-31.39,24.68-62.54,49.66-93.73,74.58-5.84,4.66-5.92,7.05-.82,12.63,7.4,8.11,14.71,16.3,22.23,24.29,8.31,8.82,8.14,19,4.34,29.28-4,10.87-12.69,16.51-24.11,17.28-9.88.67-18.44-2.26-25.4-10Q101.2,316.16,65.8,277.56C55.45,266.3,43.3,256.77,33.68,244.8,9,214-2.67,179.18.52,139.63,6,71.8,56.84,16.83,125.84,3.28,136.8,1.13,147.89.12,163.93,0Z"/><path class="cls-1" d="M176.93,508.11c-48.27-.77-90.55-16.7-125.35-50.56C26,432.65,10,402.14,2,367.54c-2.87-12.36,9.22-26.78,23.39-29.45C38,335.72,54,344.17,57.86,358.71c12.35,46.79,42.33,77.61,89.29,89.45,39.88,10.06,76.36,1.48,106.24-28.11,17.3-17.14,26.36-38.39,28.27-62.67,2.34-29.74-6.29-56-24.89-79.18-6.72-8.37-5.49-23.46,2.46-32.85A28.08,28.08,0,0,1,303.87,247c17.35,24,29.26,50.34,33.14,79.7,6,45.76-5.4,87.06-34.52,123-26.35,32.56-61.21,50.35-102.14,56.94A118.89,118.89,0,0,1,176.93,508.11Z"/><path class="cls-2" d="M681.16,117.74c-13.82-9.16-28.56-13.81-44.27-15.43-11.17-1.15-22.27-.94-32.89,3.43-18,7.41-20.47,24.5-5.17,36.56,9.37,7.37,20.39,11.74,31.22,16.39,13.92,6,27.57,12.39,39.34,22.2,16.9,14.07,22.85,32.49,21.37,53.75-2.06,29.61-19,47.68-46.4,55.63-34.32,9.94-68.65,8.23-102.42-3.75-4.53-1.61-6.28-3.92-6.14-9,.36-12.95,0-25.93-.07-38.9,0-1.6,0-3.21,0-5.71,8.77,7.05,17.39,12.53,27,16.22,16.94,6.5,34.36,9.2,52.31,5.29,10.13-2.21,19.39-6.38,21.64-17.88,2.2-11.29-4.66-18.46-13-24.35-10.26-7.23-21.95-11.67-33.42-16.48a140.66,140.66,0,0,1-33.55-19.3C526,152.07,525.38,94.38,569.46,72.94a107.21,107.21,0,0,1,38.73-10.46c23.2-1.86,46.18-.89,68.61,6.26,3.38,1.08,4.51,2.56,4.45,6.15C681,89,681.16,103,681.16,117.74Z"/><path class="cls-2" d="M1035.74,233.07c14.59,12.06,30.44,19.27,48.2,22,12.6,1.91,25.23,2.19,37.41-2.52,17.71-6.83,20.89-23.72,6.85-36.51-7.1-6.47-15.73-10.47-24.4-14.34-13.17-5.89-26.71-10.91-39-18.83-34-22-35.1-58.4-24.17-81.63,8.66-18.41,24.45-28.79,43.34-34,30.88-8.56,61.83-7.34,92.55,1.62,3.07.9,4.46,2.07,4.39,5.7-.3,14.12-.12,28.25-.12,43.12a93.21,93.21,0,0,0-24.13-11.25c-15.55-4.5-31.25-6.42-47.25-2.52a34.41,34.41,0,0,0-12.63,5.7c-9.78,7.27-11,19.19-3,28.29,6.1,6.88,14.15,10.92,22.27,14.79,12.73,6.07,26.07,10.84,38.29,18,14.36,8.45,27.08,18.66,32.41,35.09,10.8,33.27,1.1,72-43.21,84.72-33.86,9.69-67.71,8-101-3.6-5-1.72-7.23-4.06-7-9.85C1036.1,262.71,1035.74,248.4,1035.74,233.07Z"/><path class="cls-2" d="M1312.46,178.88c0-36.24.06-72.49-.08-108.73,0-3.78.81-5,4.88-5q60.91.24,121.85,0c3.68,0,4.83.82,4.73,4.65-.28,11-.26,21.94,0,32.91.09,3.63-1.09,4.31-4.47,4.29-23.63-.15-47.27,0-70.91-.18-4,0-4.91,1.1-4.85,4.93q.33,23.19,0,46.38c0,3.59.66,4.75,4.54,4.71,21.47-.22,42.95,0,64.42-.22,4.32,0,5.17,1.25,5.06,5.27-.29,10.8-.23,21.61,0,32.41.07,3.32-.94,4.16-4.17,4.14-21.64-.14-43.29,0-64.92-.16-3.87,0-5,.92-4.92,4.86.19,26.27,0,52.54.19,78.8,0,3.73-.88,4.69-4.62,4.62q-21.23-.36-42.45,0c-3.57.06-4.34-1-4.33-4.43C1312.51,251.69,1312.46,215.29,1312.46,178.88Z"/><path class="cls-2" d="M960.3,272.35c-6.58,8.21-13.38,15.56-23.17,19.41-14.56,5.72-29.27,6.09-43.62-.24-14.75-6.5-22-18.59-23.45-34.34a60.49,60.49,0,0,1,.57-16.88c4.19-22.05,19.67-32,39.8-36.63,15.4-3.51,31.21-4.57,46.82-6.83,3.4-.49,3.53-1.74,3.22-4.46-1.58-14-11.24-20.84-28-20.23-17.38.63-33.21,5.83-48.4,15.93,0-11.38,0-22.05,0-32.72a2.53,2.53,0,0,1,1.86-2.59C913.24,142,941.17,136.44,970,146c18.66,6.18,28.16,20.7,31.86,39.39a111.18,111.18,0,0,1,1.88,21.31c.13,26.93,0,53.86.26,80.78,0,4.28-1.19,5.18-5.24,5.08q-17-.44-34,0c-3.92.1-4.77-1.19-4.56-4.78C960.52,282.65,960.3,277.49,960.3,272.35Zm.46-42.32a18.8,18.8,0,0,1,0-2.49c.59-4.21-.71-5.62-5.18-4.43-3.81,1-7.9,1-11.84,1.53-7.37,1.06-14.92,1.27-21.78,4.7-7.77,3.9-11.06,10.17-10,19.25.82,7.24,5.85,13,13.75,14.47,10.84,2,20.46-.52,27.87-9.26C959.39,246.92,960.65,238.65,960.76,230Z"/><path class="cls-2" d="M800.41,272.24c-6.71,10.44-15.38,18.55-27.69,21.47-19.5,4.61-38,3.47-52.12-12.95-18.53-21.62-10.57-58.62,14.8-71.42,10.61-5.35,22.08-7,33.6-8.63,9.88-1.38,19.74-2.85,29.65-3.91,3-.32,3.47-1.36,3.23-4-1.09-11.62-8.43-19.12-20.28-20.18-18.52-1.65-35.56,3-51.42,12.4-1.41.84-2.78,1.73-4.93,3.06,0-8.29,0-16,0-23.65,0-11.6,0-11.79,11.07-15.31,20.48-6.52,41.33-10,62.88-6.42,26.2,4.29,43,22.41,44.82,49.05,2.21,32.55.54,65.16,1.11,97.73,0,2.47-.81,3-3.13,3-12.32-.1-24.64-.12-37,0-2.62,0-3.48-.7-3.4-3.34.18-5.55.06-11.11.06-16.66Zm1.6-42.06a19.86,19.86,0,0,1,0-3c.65-4.25-1-5-5-4.1s-8.24,1-12.35,1.57c-7.36,1.1-14.93,1.28-21.77,4.82-7.65,4-10.9,10.38-9.77,19.45a16.8,16.8,0,0,0,14.11,14.24c6.28,1.12,12.62.8,18.49-2.24C798.29,254.44,802,243.26,802,230.18Z"/><path class="cls-2" d="M1520.21,219.11c0,22.78-.12,45.56.11,68.34,0,4.26-1.22,5.19-5.27,5.1-12.15-.28-24.31-.22-36.46,0-3.27.05-4.11-.86-4.11-4.11q.16-69.84,0-139.67c0-3.3.91-4.13,4.13-4.08,12.32.19,24.65.23,37,0,3.69-.08,4.77.8,4.73,4.62C1520.11,172.55,1520.21,195.83,1520.21,219.11Z"/><path class="cls-2" d="M1267.22,218.66c0,23.1-.11,46.2.1,69.3,0,3.85-1.09,4.65-4.72,4.58-12.14-.23-24.3-.2-36.44,0-3.25.05-4.56-.44-4.55-4.18q.21-69.79,0-139.6c0-3.32.95-4.11,4.15-4.06q18.72.27,37.44,0c3.37-.06,4.08,1,4.07,4.19C1267.16,172.12,1267.22,195.39,1267.22,218.66Z"/><path class="cls-2" d="M441.39,256q0,118.47,0,237c0,2.63.65,5.16-3.77,5-3.61-.12-4.32-1.2-4.31-4.56.13-28.77.08-57.53.08-86.3q0-194.53,0-389.08c0-2.39-1.17-5.26,3.49-5.2,3.81.05,4.58,1.08,4.57,4.72q-.17,104.27-.08,208.51Z"/><path class="cls-1" d="M564.28,347.29c12.06,0,21.38,9,21.55,20.87.06,3.62-1.59,6.21-5.35,6.62-3.57.39-6.09-1.19-6.88-4.95-.34-1.6-.19-3.27-1.08-4.81-2.37-4.07-6.69-6.45-10.29-5.16-4.24,1.51-7.1,4.33-7.06,9.17,0,4.27,3.82,8.29,8.55,9,2.62.39,5.27.34,7.85,1.21,10.49,3.53,16.24,14.51,13.57,26.11-2.32,10.14-12.41,16.89-23.5,15.74-10.71-1.12-19.11-10.31-19-20.92,0-3.52,1.51-6.25,5.34-6.65,3.61-.38,6.11,1.18,6.83,5a24.05,24.05,0,0,0,1,4.35c1.56,3.94,6.32,6.66,10,5.87a9.93,9.93,0,0,0,7.65-9.26c0-4.09-3.59-8.19-8-9-1.79-.34-3.67-.18-5.45-.53-10.83-2.17-18.27-11.81-17.3-22.3C543.8,355.32,552.35,347.29,564.28,347.29Z"/><path class="cls-2" d="M1498,74.7c18.56.16,30,14.54,24.56,30.84-3.12,9.3-11.63,14.92-23.74,15.67-18.47,1.13-31.6-14.43-26.17-31C1475.73,80.66,1485.68,74.59,1498,74.7Z"/><path class="cls-2" d="M1244.22,121.32c-17.3.56-29.88-14.91-24.42-31.32a20.26,20.26,0,0,1,6.11-8.92c8.77-7.64,24.75-8.7,34.51-2.36,8.35,5.43,12.19,14.64,10.06,24.13a23.56,23.56,0,0,1-20.27,18C1248.57,121,1246.9,121.1,1244.22,121.32Z"/><path class="cls-1" d="M1176,421.18c-15.87,0-29.08-10.22-32-24.75-3-15.37,4.36-30.11,18.22-36.23,14.08-6.22,31.19-2.05,39.5,9.62.28.41.6.8.86,1.22,1.92,3.19,3.09,6.52-.11,9.49-2.45,2.27-7.11.82-9.81-2.64-5.13-6.57-11.46-10.68-20.2-8.95s-14.47,7.13-16.92,15.7c-2.38,8.32,1.24,17.09,8.81,22,7.87,5.08,16.73,4.8,23.62-.89a42.29,42.29,0,0,0,4.84-5c2.61-3,5.76-3.56,8.82-1.28s2.69,5.4.8,8.44C1197.43,416.07,1187.28,421.17,1176,421.18Z"/><path class="cls-1" d="M872.87,389.2c0-8.49.08-17,0-25.45-.07-4.4,1.81-6.39,6.26-6.35,9.83.11,19.65.08,29.48,0,3.75,0,6.26,1.42,6.34,5.36.08,4.25-2.49,5.66-6.52,5.56-6.82-.16-13.66.08-20.48-.1-2.89-.07-4,.55-4.09,3.8-.18,12.35-.32,12.35,12,12.35,2.67,0,5.35-.15,8,.07,3.45.3,5,2.65,4.82,5.84s-1.94,4.89-5.14,4.92c-5.33.05-10.67.17-16,0-2.9-.11-3.58.95-3.65,3.71-.26,11.44-.36,11.43,10.89,11.43,4.5,0,9,.05,13.49,0,3.87-.05,6.57,1.3,6.69,5.58s-2.58,5.41-6.19,5.42q-15,0-30,0c-4.12,0-6-2-5.93-6.19C873,406.49,872.87,397.84,872.87,389.2Z"/><path class="cls-2" d="M1002.28,418c-4.9,2.27-9.78,4.08-15.32,2.52-9.33-2.61-15.39-11.58-13.79-20.81a18.72,18.72,0,0,1,19.18-15.48A18.51,18.51,0,0,1,1009.91,402c.22,6.64.2,13.3,0,19.94a18.47,18.47,0,0,1-13.83,17.47,18.18,18.18,0,0,1-20-7.65c-1.46-2.33-2.87-5,.16-7s4.35.46,5.85,2.63c3.54,5.11,8.3,6.66,13.39,4.62S1003.24,424.83,1002.28,418Zm-10.77-26.61a11.29,11.29,0,1,0-.1,22.58c6,.05,11.5-5.52,11.36-11.48A11.76,11.76,0,0,0,991.51,391.42Z"/><path class="cls-2" d="M654.4,407.59c0,2.82,0,5.65,0,8.48.06,2.59-.54,4.93-3.53,5s-3.7-2.21-3.68-4.84c0-5.32.06-10.64,0-16s-3-8.79-7.41-8.83-7.48,3.38-7.54,8.7-.06,10.64,0,16c0,2.6-.57,4.91-3.56,5s-3.67-2.26-3.65-4.85c0-4.83,0-9.65,0-14.47,0-6.66-2.59-10.19-7.51-10.31S609.79,395,609.77,402c0,4.82,0,9.64,0,14.46,0,2.36-.62,4.55-3.38,4.65-3,.12-3.94-2-4-4.64,0-6-.32-12,.08-18,.8-12,13.46-18.18,23.43-11.46,2,1.37,3.17,1.74,5.31.09,4.6-3.53,9.86-3.88,15-1.27,5.37,2.7,8.07,7.23,8.1,13.28C654.41,401.93,654.4,404.76,654.4,407.59Z"/><path class="cls-2" d="M1387.84,407.27c0,3.16,0,6.31,0,9.47,0,2.52-1,4.4-3.68,4.33s-3.51-2.06-3.5-4.53c0-5.32,0-10.64,0-16,0-5.7-3-9.23-7.6-9.15s-7.33,3.57-7.37,9.37c0,4.33.07,8.65,0,13-.07,3,1.06,7.3-3.68,7.19s-3.34-4.5-3.43-7.43c-.15-4.48,0-9-.06-13.47-.11-5.28-3.17-8.64-7.67-8.63s-7.49,3.4-7.58,8.7,0,10.64,0,16c0,2.51-.48,4.95-3.57,5s-3.78-2.2-3.77-4.82c0-5.82-.25-11.65.06-17.46.66-12.31,13.41-18.62,23.59-11.66,2.17,1.48,3.28,1.35,5.31-.14a13.56,13.56,0,0,1,15.06-1.07,13.87,13.87,0,0,1,7.94,12.86C1387.89,401.61,1387.84,404.44,1387.84,407.27Z"/><path class="cls-2" d="M836.9,386.92c0-5.4,0-10.83,0-16.25,0-2.67.29-5.39,3.72-5.24,2.94.13,3.48,2.55,3.47,5.11,0,11,.14,21.95-.06,32.91-.16,8.27-6,15.09-14.14,17.21a18.47,18.47,0,0,1-18.72-29.52,18.83,18.83,0,0,1,21.21-5.62C833.72,386,834.83,387.26,836.9,386.92Zm0,15.62A11.31,11.31,0,1,0,825.54,414,11.63,11.63,0,0,0,836.9,402.54Z"/><path class="cls-2" d="M1477.77,387.6c5.59-2.66,10.52-4.21,16-2.71,9.49,2.57,15.18,11,13.77,20.77A18.53,18.53,0,0,1,1489,421.18c-9.33-.1-17.77-7.27-18.19-16.5-.51-11.61-.17-23.26-.17-34.9,0-2.44,1-4.42,3.66-4.39s3.5,2.09,3.5,4.51C1477.77,375.55,1477.77,381.19,1477.77,387.6Zm11.62,26.4a11.29,11.29,0,1,0-11.61-11.2A11.53,11.53,0,0,0,1489.39,414Z"/><path class="cls-2" d="M666.21,418.11c0,6.26,0,11.74,0,17.21,0,2.64-.85,4.83-3.82,4.69s-3.38-2.59-3.37-5.1c0-10.78-.09-21.56,0-32.34A18,18,0,0,1,672.57,385,18.19,18.19,0,0,1,693,392.72,18.58,18.58,0,0,1,670.22,420C669,419.54,667.91,418.92,666.21,418.11Zm11.1-3.93a11.34,11.34,0,0,0,11.39-11.32,11.57,11.57,0,0,0-11.37-11.43,11.44,11.44,0,0,0-11.11,11.16A11.28,11.28,0,0,0,677.31,414.18Z"/><path class="cls-2" d="M1532.12,406.21c4.07,7.6,9.49,9.48,16.67,6.27,2.52-1.13,5.14-2.75,6.74.72,1.53,3.31-1.22,4.72-3.66,6-9.38,4.74-21.09,1.08-25.8-8a18.34,18.34,0,0,1,8-24.75c9-4.63,20.36-1.22,25,7.57a16.87,16.87,0,0,1,1.54,4.17c1.48,6.49.18,8.09-6.45,8.1C1547,406.22,1539.88,406.21,1532.12,406.21Zm10.52-7.17c2.5,0,5,0,7.49,0,.88,0,2.21.52,2.46-.83a3.66,3.66,0,0,0-.88-2.21c-3.88-5.66-13.44-5.88-17.79-.4-.59.74-1.38,1.83-1.21,2.57.34,1.55,1.91.81,3,.86C1538,399.11,1540.31,399,1542.64,399Z"/><path class="cls-2" d="M773.78,406.21c3.82,7.53,9.36,9.48,16.52,6.3,2.49-1.1,5.16-2.85,6.77.64s-1.44,4.93-4,6.17c-9.52,4.56-21.09.67-25.6-8.58a18.36,18.36,0,0,1,8.09-24.34,18.81,18.81,0,0,1,25,7.46,18.14,18.14,0,0,1,2,6.64c.47,4-1.08,5.86-5.31,5.76C789.62,406.08,782,406.21,773.78,406.21Zm10.6-7.17c2.33,0,4.66,0,7,0,.92,0,2.12.52,2.7-.53s-.29-1.85-.86-2.65c-4.16-5.74-14.18-5.59-18.13.25-1.21,1.78-1.6,3,1.32,3C779.06,399,781.72,399,784.38,399Z"/><path class="cls-2" d="M939.86,406.21c2.86,6.54,7.64,8.91,13.8,7.19a22.31,22.31,0,0,0,4.12-1.69c2.13-1.1,4-.83,5.13,1.24s.2,3.77-1.61,5.13c-6,4.5-16.49,4.05-22.9-1a18.49,18.49,0,0,1-5.45-21.6,18.74,18.74,0,0,1,19.39-11c8.61,1.2,15,7.33,16,15.41.62,5-.49,6.35-5.51,6.38C955.32,406.24,947.83,406.21,939.86,406.21Zm10-7.17c2.66,0,5.33-.08,8,0,2.81.1,2.7-1,1.46-2.92C956,391.11,948,390,943,394.06c-1.36,1.11-3.38,2.37-2.64,4.31.56,1.47,2.66.54,4.07.64C946.21,399.14,948,399,949.87,399Z"/><path class="cls-2" d="M1051.37,409.57a70.76,70.76,0,0,1-.06,8c-.38,3.44-3.37,4.95-5.5,2.58s-3.38-1.26-5.38-.4a18.49,18.49,0,0,1-21.18-29.38,18.72,18.72,0,0,1,22.82-3.8,17,17,0,0,1,9,13.08c.46,3.27.4,6.62.57,9.93Zm-7.28-6.54c0-6.25-4.68-11.41-10.59-11.61a11.67,11.67,0,0,0-11.71,11.65A11.24,11.24,0,0,0,1033,414,10.83,10.83,0,0,0,1044.09,403Z"/><path class="cls-2" d="M1466.59,408.92c0,2.81.2,5.65,0,8.45-.32,3.63-3.38,5.09-5.76,2.57-1.68-1.78-2.59-1.46-4.41-.61-7.75,3.59-17,1.68-22.3-4.38a18.62,18.62,0,0,1,19-30.05c8.32,2.29,13.35,9,13.56,18,.05,2,0,4,0,6Zm-7.17-5.83c.09-6.24-5.19-11.74-11.18-11.67S1436.77,397,1436.82,403c0,5.81,5.27,10.87,11.35,11A11.07,11.07,0,0,0,1459.42,403.09Z"/><path class="cls-2" d="M1294.56,402.5a18.42,18.42,0,0,1,18.5-18.25,18.46,18.46,0,1,1-.41,36.92A18.46,18.46,0,0,1,1294.56,402.5Zm18.25-11.07a11.41,11.41,0,0,0-11.07,11.67,11.24,11.24,0,1,0,11.07-11.67Z"/><path class="cls-2" d="M1055.74,407.9c.14-3-.39-6.5.54-9.92a18.49,18.49,0,0,1,36.31,3.37c.42,5.12.15,10.3.11,15.45,0,2.45-1.13,4.33-3.79,4.28s-3.5-2.14-3.52-4.52c0-4.49.11-9,0-13.46-.22-6.75-5-11.64-11.15-11.67-6.38,0-11.17,5.06-11.27,12.06-.07,4.32,0,8.64,0,13,0,2.7-1,4.74-3.91,4.61-2.76-.13-3.31-2.31-3.28-4.68C1055.76,413.72,1055.74,411.06,1055.74,407.9Z"/><path class="cls-2" d="M1240,398.08c0,2.66.06,5.32,0,8-.24,8.63-6.39,14.93-14.69,15.11A15,15,0,0,1,1210,406.53c-.28-5.8-.06-11.63-.06-17.45,0-2.61.83-4.84,3.83-4.72s3.52,2.51,3.52,5c0,5.15-.07,10.31,0,15.46.08,5.51,3.24,9.15,7.74,9.13s7.64-3.66,7.7-9.16c0-5,.06-10,0-15,0-2.68.2-5.36,3.52-5.5s3.73,2.56,3.69,5.24S1240,395.26,1240,398.08Z"/><path class="cls-2" d="M1415.87,384.26c3.33.37,6.8,1.67,8.89,5.37,1.15,2,1.63,4.17-.51,5.81s-4.07.63-5.37-1.48c-1.61-2.6-3.6-3.34-6.18-1.43a3.19,3.19,0,0,0-1.07,3.6c.61,2.38,2.55,2.64,4.62,3,7.25,1.25,11,6.84,9.46,13.64a11,11,0,0,1-10,8.39c-4.22.26-9.25-2.82-10.85-6.7-.84-2-.93-4,1.27-5.21,2-1.09,3.54-.19,4.67,1.51s2.16,3.56,4.59,3.1c2-.37,3.36-1.57,3.31-3.75-.07-2.66-1.74-3.51-4.2-4-6.49-1.15-9.66-4.32-10.26-9.77C1403.58,389.9,1408.7,384.21,1415.87,384.26Z"/><path class="cls-2" d="M732,405.37c0-2.66-.07-5.32,0-8,.11-3.39.54-6.75-4.75-6.14-1.82.2-3-1.4-3-3.3,0-2.18,1.48-3.76,3.4-3.53,4.09.5,4.26-1.83,4.89-4.86a17.22,17.22,0,0,1,10.73-12.83c2.32-1,4.31-.72,5.41,1.76,1,2.31-.21,3.9-2.23,4.78a11.73,11.73,0,0,0-6.82,7.46c-.76,2.36-.67,3.92,2.46,3.54a18.65,18.65,0,0,1,3,0c2.47.11,4.26,1.09,4.18,3.85-.08,2.55-1.88,3.63-4.08,3.24-5.83-1-6.39,2-6.09,6.7.37,5.8,0,11.63.11,17.45,0,2.67-.19,5.42-3.47,5.54-3.82.14-3.74-3-3.73-5.7C732,412,732,408.69,732,405.37Z"/><path class="cls-2" d="M1256.3,421.17c-5,0-9.93-3.39-11.26-7.2-.67-1.93-.47-3.63,1.48-4.7a3.21,3.21,0,0,1,4.39,1.05c.61.77,1,1.71,1.73,2.42a3.32,3.32,0,0,0,4.06.86,3.77,3.77,0,0,0,2.43-4,3.52,3.52,0,0,0-2.68-3.24c-1.58-.44-3.3-.48-4.82-1.05a10,10,0,0,1-7-10.34c.11-5,2.64-8.42,7.41-10.1s8.89-.23,12.15,3.33c1.83,2,3.08,4.81.5,7.05s-4.4.31-5.9-2a3.8,3.8,0,0,0-7,2.13c.22,2.35,1.81,3.23,4,3.67,8.65,1.75,12.57,7.55,10,14.74A10.71,10.71,0,0,1,1256.3,421.17Z"/><path class="cls-2" d="M1101.7,405.42c0-2.33,0-4.65,0-7,.09-4,1-8.34-5.68-7.17-2.07.36-3.31-1.41-3.25-3.55s1.52-3.66,3.52-3.36c5.52.84,5.8-2.23,5.45-6.33-.24-2.8-.06-5.64,0-8.47,0-2.24.89-4.08,3.32-4.16,2.65-.08,3.78,1.77,3.82,4.24.06,3.66.16,7.32,0,11-.13,2.61.35,4.07,3.42,3.69,2.65-.33,5.41.13,5.5,3.45s-2.62,3.91-5.31,3.64c-2.86-.29-3.69.8-3.62,3.6.18,7,0,13.95.07,20.93,0,2.76-.56,5.29-3.88,5.13-3-.14-3.35-2.66-3.32-5.16C1101.74,412.39,1101.7,408.9,1101.7,405.42Z"/><path class="cls-2" d="M1278.57,405.26c0-2.66-.19-5.33,0-8,.35-4-.21-6.8-5.37-6-2,.33-3.49-1.07-3.58-3.26-.1-2.44,1.43-4,3.66-3.7,5.23.8,5.61-2,5.29-6-.23-3-.07-6,0-9,0-2.26,1-4,3.47-4s3.58,1.66,3.64,3.91c.11,3.82.22,7.65,0,11.46-.18,2.84.74,3.85,3.58,3.53s5.39.27,5.34,3.6-2.82,3.78-5.46,3.49c-3.08-.35-3.51,1.15-3.45,3.76.14,6.81,0,13.62.06,20.43,0,2.68-.26,5.4-3.55,5.48s-3.69-2.64-3.65-5.32C1278.6,412.24,1278.57,408.75,1278.57,405.26Z"/><path class="cls-2" d="M926.85,393.75c0,7.29,0,14.58,0,21.87,0,2.66-.3,5.33-3.61,5.45s-3.74-2.58-3.74-5.24V371.59c0-2.67.36-5.35,3.78-5.2s3.58,2.84,3.57,5.49C926.83,379.17,926.85,386.46,926.85,393.75Z"/><path class="cls-2" d="M707.18,394c0,7.32,0,14.64,0,22,0,2.56-.45,4.94-3.45,5.08-3.46.16-3.76-2.48-3.75-5.18q0-22.2,0-44.4c0-2.51.25-5,3.37-5.08,3.36-.08,3.85,2.41,3.83,5.18C707.15,379.06,707.18,386.55,707.18,394Z"/><path class="cls-2" d="M1519.57,394.23c0,7.15,0,14.3,0,21.45,0,2.71-.32,5.36-3.65,5.38s-3.56-2.74-3.56-5.38q0-22,0-43.91c0-2.64.12-5.4,3.57-5.37s3.66,2.67,3.64,5.38C1519.53,379.26,1519.57,386.75,1519.57,394.23Z"/><path class="cls-2" d="M1399.49,402.6c0,4.48,0,9,0,13.46,0,2.54-.57,4.91-3.57,5s-3.78-2.16-3.78-4.76q0-13.71,0-27.42c0-2.54.6-4.88,3.75-4.74s3.6,2.44,3.59,5C1399.48,393.62,1399.49,398.11,1399.49,402.6Z"/><path class="cls-2" d="M761,403c0,4.49,0,9,0,13.46,0,2.4-.81,4.49-3.48,4.59-3,.11-3.85-2.08-3.85-4.7q0-13.71,0-27.42c0-2.52.54-4.89,3.69-4.81s3.65,2.36,3.65,4.92C761,393.72,761,398.38,761,403Z"/><path class="cls-2" d="M597.77,402.66c0,4.65,0,9.3,0,14,0,2.39-.79,4.46-3.56,4.46s-3.74-1.89-3.74-4.33q-.06-14.22,0-28.42c0-2.44,1.12-4.28,3.85-4.18s3.43,2.21,3.45,4.55C597.8,393.35,597.78,398,597.77,402.66Z"/><path class="cls-2" d="M719.17,402.44c0,4.65,0,9.3,0,13.94,0,2.66-.83,4.79-3.81,4.68-2.7-.1-3.39-2.17-3.38-4.6q0-13.95,0-27.88c0-2.45.72-4.42,3.52-4.41s3.66,1.83,3.66,4.33C719.16,393.15,719.17,397.8,719.17,402.44Z"/><path class="cls-2" d="M1395.43,369.29c2.44.09,3.75,1.45,3.9,3.4a3.2,3.2,0,0,1-3.13,3.74c-2.48.19-3.86-1.1-3.9-3.46A3.66,3.66,0,0,1,1395.43,369.29Z"/><path class="cls-2" d="M760.93,373c-.47,2.12-1.48,3.6-3.95,3.43a3.14,3.14,0,0,1-3.19-3.56,3.4,3.4,0,0,1,3.82-3.53C759.68,369.49,760.6,371.07,760.93,373Z"/><path class="cls-2" d="M593.87,369.28c2.28.14,3.63,1.32,3.76,3.39s-.73,3.61-3.07,3.77-3.92-1.18-4-3.46C590.55,371,592,369.72,593.87,369.28Z"/><path class="cls-2" d="M715.64,369.26c2.24.45,3.62,1.73,3.44,4a3.15,3.15,0,0,1-3.58,3.16c-2.16-.07-3.37-1.18-3.42-3.3C712,370.8,713.48,369.67,715.64,369.26Z"/></g></g></svg>