<svg width="34" height="26" viewBox="0 0 34 26" fill="none" xmlns="http://www.w3.org/2000/svg">
<path d="M7.78572 10.0606C7.40992 10.0606 7.04929 10.1179 6.69034 10.1701C6.80662 9.77917 6.92627 9.38147 7.11838 9.02421C7.31049 8.50517 7.61046 8.05522 7.90873 7.6019C8.15814 7.11151 8.59798 6.77953 8.92153 6.35992C9.26026 5.9521 9.722 5.68078 10.0877 5.34206C10.4466 4.98817 10.9168 4.81122 11.2909 4.56182C11.6819 4.33769 12.0223 4.08996 12.3863 3.972L13.2946 3.59789L14.0934 3.2659L13.2761 0L12.27 0.242667C11.9481 0.323556 11.5555 0.417927 11.1089 0.530835C10.6522 0.615095 10.1652 0.845967 9.62258 1.05662C9.08668 1.29591 8.46653 1.45769 7.8902 1.84192C7.31049 2.20929 6.64147 2.51599 6.05165 3.00807C5.48037 3.51531 4.79113 3.95515 4.2822 4.60058C3.72609 5.20388 3.17671 5.83751 2.75036 6.55877C2.2566 7.24633 1.92124 8.0013 1.56735 8.74784C1.24717 9.49438 0.989333 10.2578 0.778684 10.9993C0.379294 12.4856 0.200663 13.8978 0.13157 15.1061C0.0742738 16.316 0.107978 17.3221 0.178756 18.0501C0.204034 18.3939 0.251219 18.7275 0.284923 18.9584L0.327053 19.2415L0.370868 19.2314C0.670598 20.6315 1.36059 21.9182 2.36102 22.9425C3.36145 23.9669 4.63144 24.687 6.02408 25.0198C7.41672 25.3525 8.8751 25.2841 10.2305 24.8226C11.5859 24.3611 12.783 23.5253 13.6832 22.4119C14.5835 21.2984 15.1501 19.9529 15.3175 18.5309C15.485 17.1089 15.2465 15.6685 14.6295 14.3764C14.0126 13.0843 13.0424 11.9933 11.8313 11.2295C10.6202 10.4658 9.21755 10.0605 7.78572 10.0606ZM26.3228 10.0606C25.947 10.0606 25.5864 10.1179 25.2275 10.1701C25.3437 9.77917 25.4634 9.38147 25.6555 9.02421C25.8476 8.50517 26.1476 8.05522 26.4459 7.6019C26.6953 7.11151 27.1351 6.77953 27.4587 6.35992C27.7974 5.9521 28.2591 5.68078 28.6248 5.34206C28.9838 4.98817 29.4539 4.81122 29.828 4.56182C30.219 4.33769 30.5594 4.08996 30.9234 3.972L31.8317 3.59789L32.6305 3.2659L31.8132 0L30.8071 0.242667C30.4853 0.323556 30.0926 0.417927 29.646 0.530835C29.1893 0.615095 28.7023 0.845967 28.1597 1.05662C27.6255 1.2976 27.0037 1.45769 26.4273 1.8436C25.8476 2.21097 25.1786 2.51768 24.5888 3.00975C24.0175 3.517 23.3282 3.95683 22.8193 4.60058C22.2632 5.20388 21.7138 5.83751 21.2875 6.55877C20.7937 7.24633 20.4584 8.0013 20.1045 8.74784C19.7843 9.49438 19.5265 10.2578 19.3158 10.9993C18.9164 12.4856 18.7378 13.8978 18.6687 15.1061C18.6114 16.316 18.6451 17.3221 18.7159 18.0501C18.7412 18.3939 18.7883 18.7275 18.822 18.9584L18.8642 19.2415L18.908 19.2314C19.2077 20.6315 19.8977 21.9182 20.8981 22.9425C21.8986 23.9669 23.1686 24.687 24.5612 25.0198C25.9538 25.3525 27.4122 25.2841 28.7676 24.8226C30.123 24.3611 31.3201 23.5253 32.2203 22.4119C33.1206 21.2984 33.6872 19.9529 33.8547 18.5309C34.0221 17.1089 33.7836 15.6685 33.1666 14.3764C32.5497 13.0843 31.5795 11.9933 30.3684 11.2295C29.1573 10.4658 27.7547 10.0605 26.3228 10.0606Z" fill="#1B435D"/>
</svg>
