<svg width="27" height="27" viewBox="0 0 27 27" fill="none" xmlns="http://www.w3.org/2000/svg">
<path d="M24.2992 13.6845H13.3155V2.70084C13.3155 2.56584 13.205 2.45539 13.07 2.45539H12.2723C10.6607 2.45275 9.06438 2.76881 7.57533 3.38539C6.08627 4.00197 4.73383 4.9069 3.5958 6.04811C2.47506 7.16538 1.58207 8.48976 0.966463 9.94763C0.325864 11.4597 -0.00285094 13.0855 1.86267e-05 14.7277C-0.00262048 16.3393 0.313441 17.9356 0.93002 19.4247C1.5466 20.9137 2.45153 22.2662 3.59274 23.4042C4.71872 24.5302 6.03186 25.4169 7.49226 26.0335C9.00432 26.6741 10.6302 27.0028 12.2723 27C13.884 27.0026 15.4803 26.6866 16.9693 26.07C18.4584 25.4534 19.8108 24.5485 20.9488 23.4073C22.0748 22.2813 22.9615 20.9681 23.5782 19.5077C24.2188 17.9957 24.5475 16.3698 24.5446 14.7277V13.93C24.5446 13.795 24.4342 13.6845 24.2992 13.6845ZM19.4424 21.9622C18.4924 22.9048 17.3657 23.6508 16.1269 24.1572C14.8881 24.6637 13.5615 24.9208 12.2232 24.9137C9.52026 24.9014 6.97989 23.8429 5.06848 21.9315C3.1448 20.0078 2.08631 17.4491 2.08631 14.7277C2.08631 12.0063 3.1448 9.44753 5.06848 7.52385C6.74365 5.84868 8.90051 4.82701 11.2292 4.59384V15.7708H22.4062C22.1699 18.1118 21.1391 20.2809 19.4424 21.9622ZM26.9991 11.9787L26.9193 11.1135C26.6585 8.2878 25.4037 5.62164 23.3849 3.60899C21.3647 1.59264 18.704 0.344757 15.862 0.0807017L14.9937 0.000931857C14.8495 -0.0113404 14.7268 0.0991103 14.7268 0.24331V12.0278C14.7268 12.1628 14.8372 12.2732 14.9722 12.2732L26.7536 12.2425C26.8978 12.2425 27.0114 12.1198 26.9991 11.9787ZM16.8069 10.1931V2.3204C18.7396 2.72491 20.5132 3.68206 21.9122 5.07553C23.3143 6.47457 24.2746 8.25405 24.6735 10.1716L16.8069 10.1931Z" fill="#838383"/>
</svg>
