<svg width="28" height="28" viewBox="0 0 28 28" fill="none" xmlns="http://www.w3.org/2000/svg">
<path fill-rule="evenodd" clip-rule="evenodd" d="M26.1817 18.612L18.0088 4.64047C17.1883 3.21805 15.659 2.33519 14.0051 2.33326C12.351 2.33132 10.8212 3.21053 9.99045 4.64053L1.81452 18.6171C0.966734 20.0426 0.947554 21.8289 1.76873 23.2857C2.59059 24.7436 4.12946 25.651 5.80332 25.6646L22.1808 25.6647C23.8721 25.6482 25.408 24.7437 26.2298 23.287C27.0505 21.832 27.0322 20.0497 26.1817 18.612ZM3.82435 19.8025L12.0063 5.8156C12.4207 5.10234 13.1806 4.66558 14.0024 4.66655C14.8241 4.66751 15.5837 5.10607 15.9912 5.81247L24.1706 19.795C24.5993 20.5198 24.6085 21.412 24.1976 22.1405C23.786 22.87 23.0167 23.3231 22.1695 23.3313L5.81288 23.3312C4.98384 23.3245 4.21302 22.87 3.80143 22.1398C3.3903 21.4105 3.3999 20.5162 3.82435 19.8025ZM14.0004 20.9979C14.6449 20.9979 15.1674 20.4755 15.1674 19.8312C15.1674 19.1869 14.6449 18.6646 14.0004 18.6646C13.3558 18.6646 12.8333 19.1869 12.8333 19.8312C12.8333 20.4755 13.3558 20.9979 14.0004 20.9979ZM15.1708 9.33122H12.8368V17.4979H15.1708V9.33122Z" fill="#838383"/>
</svg>
