<svg width="28" height="28" viewBox="0 0 28 28" fill="none" xmlns="http://www.w3.org/2000/svg">
<path d="M24.9832 6.99992L21.0002 3.01699C20.5592 2.57599 19.9735 2.33325 19.3505 2.33325H12.8335C10.2598 2.33325 8.16683 4.42625 8.16683 6.99992H7.00016C4.4265 6.99992 2.3335 9.09292 2.3335 11.6666V20.9999C2.3335 23.5736 4.4265 25.6666 7.00016 25.6666H15.1668C17.7405 25.6666 19.8335 23.5736 19.8335 20.9999H21.0002C23.5738 20.9999 25.6668 18.9069 25.6668 16.3333V8.64952C25.6668 8.03585 25.4183 7.43392 24.9832 6.99992ZM19.8335 5.14952L22.8505 8.16659H21.3093C20.495 8.16659 19.8335 7.50507 19.8335 6.69074V5.14952ZM15.1668 23.3333H7.00016C5.71333 23.3333 4.66683 22.2868 4.66683 20.9999V11.6666C4.66683 10.3798 5.71333 9.33325 7.00016 9.33325H8.16683V16.3333C8.16683 18.9069 10.2598 20.9999 12.8335 20.9999H17.5002C17.5002 22.2868 16.4537 23.3333 15.1668 23.3333ZM21.0002 18.6666H12.8335C11.5467 18.6666 10.5002 17.6201 10.5002 16.3333V6.99992C10.5002 5.71309 11.5467 4.66659 12.8335 4.66659H17.5002V6.69074C17.5002 8.79074 19.2093 10.4999 21.3093 10.4999H23.3335V16.3333C23.3335 17.6201 22.287 18.6666 21.0002 18.6666Z" fill="#838383"/>
</svg>
