<svg width="597" height="407" viewBox="0 0 597 407" fill="none" xmlns="http://www.w3.org/2000/svg">
<path d="M403.094 95.4229H306.914C304.448 95.4229 302.434 93.4042 302.434 90.942V56.5788C302.434 54.1124 304.448 52.0937 306.914 52.0937H403.094C405.556 52.0937 407.575 54.1124 407.575 56.5788V90.942C407.575 93.4042 405.556 95.4229 403.094 95.4229Z" fill="#78BBE6"/>
<path d="M315.132 88.8847V112.791L342.676 85.2427C342.676 85.2427 315.69 88.8847 315.132 88.8847Z" fill="#78BBE6"/>
<path d="M398.338 91.1245H311.674C309.581 91.1245 307.87 89.414 307.87 87.3252V60.1874C307.87 58.0986 309.581 56.3881 311.674 56.3881H398.338C400.426 56.3881 402.137 58.0986 402.137 60.1874V87.3252C402.137 89.414 400.426 91.1245 398.338 91.1245Z" fill="white"/>
<path d="M359.206 64.981H316.628C315.597 64.981 314.76 64.1395 314.76 63.1128C314.76 62.0861 315.597 61.2446 316.628 61.2446H359.206C360.237 61.2446 361.074 62.0861 361.074 63.1128C361.074 64.1395 360.237 64.981 359.206 64.981Z" fill="#1B435D"/>
<path d="M394.773 72.1206H315.798C315.228 72.1206 314.76 71.6522 314.76 71.082V71.0575C314.76 70.4873 315.228 70.023 315.798 70.023H394.773C395.344 70.023 395.812 70.4873 395.812 71.0575V71.082C395.812 71.6522 395.344 72.1206 394.773 72.1206Z" fill="#1B435D"/>
<path d="M394.773 76.186H315.798C315.228 76.186 314.76 75.7176 314.76 75.1474V75.123C314.76 74.5528 315.228 74.0844 315.798 74.0844H394.773C395.344 74.0844 395.812 74.5528 395.812 75.123V75.1474C395.812 75.7176 395.344 76.186 394.773 76.186Z" fill="#1B435D"/>
<path d="M378.45 89.6309H375.86C375.316 89.6309 374.875 89.1899 374.875 88.6417V86.5124C374.875 85.9642 375.316 85.5233 375.86 85.5233H378.45C378.995 85.5233 379.439 85.9642 379.439 86.5124V88.6417C379.439 89.1899 378.995 89.6309 378.45 89.6309Z" fill="#1B435D"/>
<path d="M386.746 89.6353H384.163C383.615 89.6353 383.173 89.1887 383.173 88.6455V86.5131C383.173 85.9659 383.615 85.5233 384.163 85.5233H386.746C387.293 85.5233 387.735 85.9659 387.735 86.5131V88.6455C387.735 89.1887 387.293 89.6353 386.746 89.6353Z" fill="#1B435D"/>
<path d="M395.047 89.6353H392.464C391.918 89.6353 391.474 89.1912 391.474 88.6452V86.5143C391.474 85.9683 391.918 85.5242 392.464 85.5242H395.047C395.593 85.5242 396.037 85.9683 396.037 86.5143V88.6452C396.037 89.1912 395.593 89.6353 395.047 89.6353Z" fill="#1B435D"/>
<path d="M148.309 179.697C130.094 173.736 111.995 167.855 94.1743 162.436C94.9485 157.976 95.9886 153.606 97.288 149.345L79.4238 135.348C81.8306 128.926 84.7255 122.742 88.0647 116.845L110.275 121.524C110.588 121.039 110.911 120.557 111.231 120.079C123.571 128.693 139.856 137.684 160.608 146.999C153.23 155.936 148.672 167.29 148.309 179.697Z" fill="#CEE3FF"/>
<path d="M160.606 146.999C139.855 137.687 123.569 128.692 111.229 120.077C115.053 114.409 119.39 109.117 124.176 104.267L114.868 83.5798C119.941 79.0426 125.368 74.8901 131.109 71.1789L148.59 85.6353C154.998 82.0373 161.806 79.0615 168.926 76.791L170.299 54.1464C176.835 52.5095 183.564 51.3705 190.443 50.7557L199.208 71.6843C200.212 71.6541 201.215 71.639 202.226 71.639C208.739 71.639 215.117 72.2123 221.317 73.2985L233.055 53.8786C239.742 55.4891 246.229 57.6125 252.471 60.2036L250.506 82.818C257.185 86.0992 263.484 90.0368 269.315 94.5514L288.727 82.818C293.849 87.3212 298.62 92.213 302.987 97.4555L290.975 116.185H204.047V127.406C203.444 127.387 202.837 127.375 202.226 127.375C185.472 127.375 170.503 135.013 160.606 146.999Z" fill="#D5EEFF"/>
<path d="M202.229 312.421C195.495 312.421 188.882 311.911 182.424 310.933L178.926 288.514C171.595 286.926 164.539 284.61 157.838 281.643L141.796 297.681C135.723 294.523 129.934 290.905 124.466 286.866L131.787 265.389C126.114 260.628 120.93 255.313 116.322 249.513L94.6565 256.264C90.7698 250.694 87.3004 244.809 84.3045 238.656L100.764 223.042C97.9809 216.265 95.8519 209.153 94.4584 201.78L72.1447 197.688C71.4773 192.326 71.1279 186.862 71.1279 181.32C71.1279 179.969 71.1562 178.622 71.1955 177.278L93.0226 171.103C93.2913 168.178 93.6804 165.289 94.172 162.435C111.993 167.853 130.093 173.734 148.306 179.694C148.289 180.235 148.282 180.776 148.282 181.32C148.282 211.113 172.437 235.267 202.229 235.267C202.837 235.267 203.445 235.257 204.047 235.236V258.255H308.379C305.073 262.814 301.479 267.146 297.625 271.238L277.187 261.382C271.797 266.432 265.898 270.945 259.571 274.831L263.659 297.154C257.679 300.334 251.423 303.067 244.937 305.299L231.413 287.071C224.385 289.006 217.072 290.258 209.549 290.753L202.798 312.412C202.607 312.412 202.42 312.421 202.229 312.421Z" fill="#D5EEFF"/>
<path d="M125.832 240.104C125.401 240.104 124.975 239.91 124.699 239.538C121.629 235.409 118.869 231.006 116.494 226.457C116.136 225.767 116.401 224.917 117.091 224.556C117.781 224.196 118.632 224.463 118.993 225.153C121.3 229.573 123.978 233.846 126.961 237.857C127.423 238.482 127.294 239.364 126.671 239.828C126.418 240.014 126.125 240.104 125.832 240.104Z" fill="white"/>
<path d="M190.512 278.178C190.45 278.178 190.388 278.175 190.326 278.166C173.433 275.953 157.332 269.286 143.769 258.888C143.151 258.416 143.035 257.53 143.51 256.915C143.984 256.297 144.867 256.181 145.485 256.655C158.653 266.749 174.288 273.224 190.693 275.372C191.464 275.474 192.008 276.179 191.907 276.953C191.814 277.661 191.21 278.178 190.512 278.178Z" fill="white"/>
<path d="M460.121 258.254H204.048V116.186H460.121V258.254Z" fill="#78BBE6"/>
<path d="M452.794 248.68H206.864V119.286H452.794V248.68Z" fill="white"/>
<path d="M443.989 238.524H405.118C405.424 238.524 405.677 238.272 405.677 237.961V237.398H443.425V219.052H443.989C444.299 219.052 444.553 218.798 444.553 218.488V237.961C444.553 238.272 444.299 238.524 443.989 238.524ZM405.118 238.524H366.242C366.556 238.524 366.806 238.272 366.806 237.961V237.398H404.554V237.961C404.554 238.272 404.807 238.524 405.118 238.524ZM366.242 238.524H327.37C327.681 238.524 327.934 238.272 327.934 237.961V237.398H365.678V237.961C365.678 238.272 365.931 238.524 366.242 238.524ZM327.37 238.524H288.499C288.809 238.524 289.063 238.272 289.063 237.961V237.398H326.806V237.961C326.806 238.272 327.06 238.524 327.37 238.524ZM288.499 238.524H249.627C249.938 238.524 250.191 238.272 250.191 237.961V237.398H287.935V237.961C287.935 238.272 288.188 238.524 288.499 238.524ZM249.627 238.524H210.751C210.441 238.524 210.188 238.272 210.188 237.961V121.114C210.188 120.804 210.441 120.55 210.751 120.55H443.989C444.299 120.55 444.553 120.804 444.553 121.114V140.587C444.553 140.277 444.299 140.023 443.989 140.023H443.425V121.678H405.677V121.114C405.677 120.804 405.424 120.55 405.118 120.55C404.807 120.55 404.554 120.804 404.554 121.114V121.678H366.806V121.114C366.806 120.804 366.556 120.55 366.242 120.55C365.931 120.55 365.678 120.804 365.678 121.114V121.678H327.934V121.114C327.934 120.804 327.681 120.55 327.37 120.55C327.06 120.55 326.806 120.804 326.806 121.114V121.678H289.063V121.114C289.063 120.804 288.809 120.55 288.499 120.55C288.188 120.55 287.935 120.804 287.935 121.114V121.678H250.191V121.114C250.191 120.804 249.938 120.55 249.627 120.55C249.313 120.55 249.063 120.804 249.063 121.114V121.678H211.315V140.023H210.751C210.441 140.023 210.188 140.277 210.188 140.587C210.188 140.902 210.441 141.151 210.751 141.151H211.315V159.501H210.751C210.441 159.501 210.188 159.754 210.188 160.065C210.188 160.375 210.441 160.628 210.751 160.628H211.315V178.973H210.751C210.441 178.973 210.188 179.227 210.188 179.537C210.188 179.848 210.441 180.101 210.751 180.101H211.315V198.451H210.751C210.441 198.451 210.188 198.7 210.188 199.01C210.188 199.325 210.441 199.574 210.751 199.574H211.315V217.924H210.751C210.441 217.924 210.188 218.177 210.188 218.488C210.188 218.798 210.441 219.052 210.751 219.052H211.315V237.398H249.063V237.961C249.063 238.272 249.313 238.524 249.627 238.524ZM444.553 218.488C444.553 218.177 444.299 217.924 443.989 217.924H443.425V199.574H443.989C444.299 199.574 444.553 199.325 444.553 199.01V218.488ZM444.553 199.01C444.553 198.7 444.299 198.451 443.989 198.451H443.425V180.101H443.989C444.299 180.101 444.553 179.848 444.553 179.537V199.01ZM444.553 179.537C444.553 179.227 444.299 178.973 443.989 178.973H443.425V160.628H443.989C444.299 160.628 444.553 160.375 444.553 160.065V179.537ZM444.553 160.065C444.553 159.754 444.299 159.501 443.989 159.501H443.425V141.151H443.989C444.299 141.151 444.553 140.902 444.553 140.587V160.065Z" fill="#CEE3FF"/>
<path d="M443.989 219.052H443.425H405.677V217.924H443.425H443.989C444.299 217.924 444.553 218.177 444.553 218.488C444.553 218.798 444.299 219.052 443.989 219.052ZM404.554 219.052H366.806V217.924H404.554V219.052ZM365.678 219.052H327.934V217.924H365.678V219.052ZM326.806 219.052H289.063V217.924H326.806V219.052ZM287.935 219.052H250.191V217.924H287.935V219.052ZM249.063 219.052H211.315H210.751C210.441 219.052 210.188 218.798 210.188 218.488C210.188 218.177 210.441 217.924 210.751 217.924H211.315H249.063V219.052Z" fill="#CEE3FF"/>
<path d="M443.989 199.574H443.425H405.677V198.451H443.425H443.989C444.299 198.451 444.553 198.7 444.553 199.01C444.553 199.325 444.299 199.574 443.989 199.574ZM404.554 199.574H366.806V198.451H404.554V199.574ZM365.678 199.574H327.934V198.451H365.678V199.574ZM326.806 199.574H289.063V198.451H326.806V199.574ZM287.935 199.574H250.191V198.451H287.935V199.574ZM249.063 199.574H211.315H210.751C210.441 199.574 210.188 199.325 210.188 199.01C210.188 198.7 210.441 198.451 210.751 198.451H211.315H249.063V199.574Z" fill="#CEE3FF"/>
<path d="M443.989 180.103H443.425H405.677V178.975H443.425H443.989C444.299 178.975 444.553 179.228 444.553 179.539C444.553 179.849 444.299 180.103 443.989 180.103ZM404.554 180.103H366.806V178.975H404.554V180.103ZM365.678 180.103H327.934V178.975H365.678V180.103ZM326.806 180.103H289.063V178.975H326.806V180.103ZM287.935 180.103H250.191V178.975H287.935V180.103ZM249.063 180.103H211.315H210.751C210.441 180.103 210.188 179.849 210.188 179.539C210.188 179.228 210.441 178.975 210.751 178.975H211.315H249.063V180.103Z" fill="#CEE3FF"/>
<path d="M443.989 160.628H443.425H405.677V159.5H443.425H443.989C444.299 159.5 444.553 159.754 444.553 160.064C444.553 160.375 444.299 160.628 443.989 160.628ZM404.554 160.628H366.806V159.5H404.554V160.628ZM365.678 160.628H327.934V159.5H365.678V160.628ZM326.806 160.628H289.063V159.5H326.806V160.628ZM287.935 160.628H250.191V159.5H287.935V160.628ZM249.063 160.628H211.315H210.751C210.441 160.628 210.188 160.375 210.188 160.064C210.188 159.754 210.441 159.5 210.751 159.5H211.315H249.063V160.628Z" fill="#CEE3FF"/>
<path d="M443.989 141.151H443.425H405.677V140.023H443.425H443.989C444.299 140.023 444.553 140.277 444.553 140.587C444.553 140.902 444.299 141.151 443.989 141.151ZM404.554 141.151H366.806V140.023H404.554V141.151ZM365.678 141.151H327.934V140.023H365.678V141.151ZM326.806 141.151H289.063V140.023H326.806V141.151ZM287.935 141.151H250.191V140.023H287.935V141.151ZM249.063 141.151H211.315H210.751C210.441 141.151 210.188 140.902 210.188 140.587C210.188 140.277 210.441 140.023 210.751 140.023H211.315H249.063V141.151Z" fill="#CEE3FF"/>
<path d="M405.116 238.525C404.806 238.525 404.55 238.273 404.55 237.963V237.397V219.052V217.924V199.575V198.451V180.102V178.974V160.629V159.501V141.152V140.028V121.679V121.113C404.55 120.803 404.806 120.551 405.116 120.551C405.426 120.551 405.678 120.803 405.678 121.113V121.679V140.028V141.152V159.501V160.629V178.974V180.102V198.451V199.575V217.924V219.052V237.397V237.963C405.678 238.273 405.426 238.525 405.116 238.525Z" fill="#CEE3FF"/>
<path d="M366.244 238.523C365.936 238.523 365.683 238.27 365.683 237.959V237.398V219.048V217.923V199.573V198.447V180.098V178.972V160.627V159.497V141.151V140.022V121.676V121.111C365.683 120.8 365.936 120.55 366.244 120.55C366.559 120.55 366.808 120.8 366.808 121.111V121.676V140.022V141.151V159.497V160.627V178.972V180.098V198.447V199.573V217.923V219.048V237.398V237.959C366.808 238.27 366.559 238.523 366.244 238.523Z" fill="#CEE3FF"/>
<path d="M327.371 238.524C327.056 238.524 326.808 238.272 326.808 237.961V237.398V219.05V217.923V199.575V198.449V180.104V178.974V160.629V159.499V141.154V140.024V121.679V121.116C326.808 120.806 327.056 120.553 327.371 120.553C327.682 120.553 327.934 120.806 327.934 121.116V121.679V140.024V141.154V159.499V160.629V178.974V180.104V198.449V199.575V217.923V219.05V237.398V237.961C327.934 238.272 327.682 238.524 327.371 238.524Z" fill="#CEE3FF"/>
<path d="M288.496 238.524C288.188 238.524 287.932 238.275 287.932 237.964V237.4V219.052V217.924V199.576V198.451V180.103V178.975V160.627V159.502V141.154V140.026V121.678V121.114C287.932 120.803 288.188 120.554 288.496 120.554C288.81 120.554 289.06 120.803 289.06 121.114V121.678V140.026V141.154V159.502V160.627V178.975V180.103V198.451V199.576V217.924V219.052V237.4V237.964C289.06 238.275 288.81 238.524 288.496 238.524Z" fill="#CEE3FF"/>
<path d="M249.631 238.524C249.317 238.524 249.066 238.27 249.066 237.959V237.394V219.049V217.922V199.574V198.447V180.098V178.972V160.623V159.496V141.151V140.024V121.676V121.11C249.066 120.8 249.317 120.549 249.631 120.549C249.939 120.549 250.193 120.8 250.193 121.11V121.676V140.024V141.151V159.496V160.623V178.972V180.098V198.447V199.574V217.922V219.049V237.394V237.959C250.193 238.27 249.939 238.524 249.631 238.524Z" fill="#CEE3FF"/>
<path d="M210.754 239.087C210.343 239.087 209.945 238.859 209.748 238.465C209.468 237.908 209.691 237.231 210.251 236.952L248.967 217.556L268.935 198.341L287.481 159.577C287.547 159.441 287.639 159.319 287.748 159.222L308.832 140.436C309.099 140.199 309.462 140.103 309.808 140.177C310.158 140.247 310.451 140.479 310.6 140.803L328.376 179.02L349.491 216.541L365.394 198.271C365.6 198.034 365.893 197.894 366.208 197.886C366.527 197.868 366.825 197.995 367.044 198.218L385.139 216.397L404.048 159.704C404.105 159.542 404.197 159.389 404.32 159.266L443.193 120.318C443.635 119.876 444.348 119.876 444.786 120.314C445.228 120.756 445.228 121.469 444.79 121.907L406.105 160.671L386.697 218.843C386.574 219.21 386.268 219.495 385.883 219.582C385.507 219.67 385.104 219.556 384.828 219.28L366.3 200.664L350.143 219.224C349.902 219.499 349.544 219.644 349.18 219.604C348.817 219.569 348.493 219.355 348.314 219.04L326.389 180.088C326.376 180.062 326.363 180.04 326.35 180.013L309.2 143.127L289.415 160.754L270.882 199.496C270.826 199.618 270.747 199.728 270.646 199.824L250.406 219.298C250.328 219.377 250.231 219.442 250.131 219.491L211.257 238.967C211.096 239.048 210.925 239.087 210.754 239.087Z" fill="#FDB44B"/>
<path d="M210.754 239.088C210.47 239.088 210.185 238.982 209.966 238.768C209.52 238.333 209.511 237.62 209.949 237.174L266.947 178.752C267.376 178.31 268.076 178.297 268.523 178.717L288.471 197.444L326.572 159.269C327.009 158.831 327.71 158.826 328.152 159.251L347.57 177.943L365.426 159.286C365.64 159.067 365.929 158.94 366.231 158.936C366.524 158.936 366.826 159.054 367.04 159.269L404.805 197.107L442.98 120.612C443.256 120.056 443.934 119.828 444.49 120.108C445.046 120.384 445.273 121.062 444.993 121.618L406.122 199.514C405.96 199.838 405.654 200.066 405.295 200.122C404.936 200.184 404.573 200.066 404.319 199.807L366.257 161.676L348.419 180.315C348.209 180.534 347.924 180.656 347.627 180.665C347.329 180.674 347.036 180.555 346.821 180.35L327.386 161.641L289.293 199.807C288.864 200.241 288.169 200.249 287.727 199.834L267.788 181.116L211.559 238.748C211.336 238.974 211.047 239.088 210.754 239.088Z" fill="#1B435D"/>
<path d="M212.602 188.362H143.041V62.6173C143.041 61.0826 144.286 59.8378 145.82 59.8378H228.216C229.751 59.8378 230.996 61.0826 230.996 62.6173V169.965C230.996 180.124 222.761 188.362 212.602 188.362Z" fill="#78BBE6"/>
<path d="M210.562 184.798H144.031V64.6502C144.031 63.1914 145.212 62.0103 146.671 62.0103H225.395C226.85 62.0103 228.035 63.1914 228.035 64.6502V167.326C228.035 176.974 220.211 184.798 210.562 184.798Z" fill="white"/>
<path d="M193.464 159.608V157.393C193.464 155.646 192.241 154.232 190.732 154.232H106.491C104.979 154.232 103.759 155.646 103.759 157.393V159.608C103.759 175.304 114.75 188.03 128.31 188.03H214.383C200.826 188.03 193.279 176.738 193.464 159.608Z" fill="#78BBE6"/>
<path d="M191.396 161.805V160.012C191.396 158.597 190.252 157.453 188.837 157.453H109.952C108.537 157.453 107.393 158.597 107.393 160.012V161.805C107.393 174.503 117.685 184.799 130.387 184.799H214.387C201.691 184.799 191.396 178.652 191.396 161.805Z" fill="white"/>
<path d="M159.214 74.8795C157.936 74.8795 156.898 75.9214 156.898 77.1957V109.798C156.898 111.072 157.936 112.114 159.214 112.114H219.219C220.493 112.114 221.531 111.072 221.531 109.798V77.1957C221.531 75.9214 220.493 74.8795 219.219 74.8795H159.214ZM219.219 113.239H159.214C157.315 113.239 155.769 111.696 155.769 109.798V77.1957C155.769 75.297 157.315 73.754 159.214 73.754H219.219C221.114 73.754 222.66 75.297 222.66 77.1957V109.798C222.66 111.696 221.114 113.239 219.219 113.239Z" fill="#78BBE6"/>
<path d="M199.272 129.062H133.319C132.381 129.062 131.616 128.294 131.616 127.357C131.616 126.419 132.381 125.654 133.319 125.654H199.272C200.213 125.654 200.978 126.419 200.978 127.357C200.978 128.294 200.213 129.062 199.272 129.062Z" fill="#78BBE6"/>
<path d="M199.272 135.279H133.319C132.382 135.279 131.616 134.513 131.616 133.573C131.616 132.637 132.382 131.871 133.319 131.871H199.272C200.212 131.871 200.978 132.637 200.978 133.573C200.978 134.513 200.212 135.279 199.272 135.279Z" fill="#78BBE6"/>
<path d="M199.271 141.28H133.318C132.382 141.28 131.615 140.513 131.615 139.574C131.615 138.639 132.382 137.872 133.318 137.872H199.271C200.21 137.872 200.977 138.639 200.977 139.574C200.977 140.513 200.21 141.28 199.271 141.28Z" fill="#78BBE6"/>
<path d="M202.838 82.4438H200.632C200.168 82.4438 199.79 82.066 199.79 81.6018V79.7845C199.79 79.3202 200.168 78.9424 200.632 78.9424H202.838C203.302 78.9424 203.68 79.3202 203.68 79.7845V81.6018C203.68 82.066 203.302 82.4438 202.838 82.4438Z" fill="#78BBE6"/>
<path d="M209.909 82.4438H207.703C207.239 82.4438 206.861 82.066 206.861 81.6018V79.7845C206.861 79.3202 207.239 78.9424 207.703 78.9424H209.909C210.374 78.9424 210.752 79.3202 210.752 79.7845V81.6018C210.752 82.066 210.374 82.4438 209.909 82.4438Z" fill="#78BBE6"/>
<path d="M216.984 82.4438H214.778C214.313 82.4438 213.936 82.066 213.936 81.6018V79.7845C213.936 79.3202 214.313 78.9424 214.778 78.9424H216.984C217.448 78.9424 217.826 79.3202 217.826 79.7845V81.6018C217.826 82.066 217.448 82.4438 216.984 82.4438Z" fill="#78BBE6"/>
<path d="M171.216 108.159H162.334V93.4965H171.216V108.159Z" fill="#1B435D"/>
<path d="M195.695 108.159H186.817V94.7185H195.695V108.159Z" fill="#1B435D"/>
<path d="M209.856 108.159H200.978V88.7171H209.856V108.159Z" fill="#1B435D"/>
<path d="M183.215 108.157H174.336V99.2774H183.215V108.157Z" fill="#1B435D"/>
<path d="M520.457 257.225H552.07C552.07 274.568 537.801 288.839 520.457 288.839C503.112 288.839 488.844 274.568 488.844 257.225C488.844 239.882 503.112 225.611 520.457 225.611V257.225Z" fill="#78BBE6"/>
<path d="M557.362 252.799C557.362 235.339 543.208 221.185 525.746 221.185V252.799H557.362Z" fill="#FDB44B"/>
<path d="M494.13 252.799C494.13 270.259 508.287 284.413 525.747 284.413C508.405 284.413 494.13 270.142 494.13 252.799Z" fill="#FDB44B"/>
<path d="M525.747 221.185C508.287 221.185 494.13 235.339 494.13 252.799C494.13 235.456 508.405 221.185 525.747 221.185Z" fill="#FDB44B"/>
<path d="M525.746 284.412C543.208 284.412 557.362 270.258 557.362 252.799C557.362 270.141 543.091 284.412 525.746 284.412Z" fill="#FDB44B"/>
<path d="M312.384 141.278C312.384 139.729 311.13 138.476 309.581 138.476C308.035 138.476 306.778 139.729 306.778 141.278C306.778 142.828 308.035 144.081 309.581 144.081C311.13 144.081 312.384 142.828 312.384 141.278Z" fill="#FDB44B"/>
<path d="M270.694 179.538C270.694 177.988 269.441 176.735 267.891 176.735C266.344 176.735 265.088 177.988 265.088 179.538C265.088 181.085 266.344 182.341 267.891 182.341C269.441 182.341 270.694 181.085 270.694 179.538Z" fill="#1B435D"/>
<path d="M330.175 160.063C330.175 158.514 328.92 157.258 327.371 157.258C325.822 157.258 324.57 158.514 324.57 160.063C324.57 161.611 325.822 162.867 327.371 162.867C328.92 162.867 330.175 161.611 330.175 160.063Z" fill="#1B435D"/>
<path d="M369.049 160.064C369.049 158.512 367.794 157.258 366.242 157.258C364.698 157.258 363.439 158.512 363.439 160.064C363.439 161.612 364.698 162.867 366.242 162.867C367.794 162.867 369.049 161.612 369.049 160.064Z" fill="#1B435D"/>
<path d="M407.919 160.062C407.919 158.515 406.666 157.258 405.115 157.258C403.568 157.258 402.312 158.515 402.312 160.062C402.312 161.613 403.568 162.865 405.115 162.865C406.666 162.865 407.919 161.613 407.919 160.062Z" fill="#FDB44B"/>
<path d="M137.386 188.024C137.386 196.378 130.617 203.15 122.26 203.15C113.907 203.15 107.134 196.378 107.134 188.024C107.134 179.671 113.907 172.898 122.26 172.898C130.617 172.898 137.386 179.671 137.386 188.024Z" fill="#5E6876"/>
<path d="M120.758 193.31H120.729C120.495 193.301 120.276 193.197 120.125 193.022L116.015 188.356C115.708 188.004 115.743 187.471 116.092 187.163C116.442 186.855 116.975 186.888 117.283 187.237L120.803 191.24L128.944 183.27C129.279 182.944 129.815 182.95 130.138 183.285C130.466 183.617 130.46 184.152 130.126 184.478L121.35 193.07C121.194 193.224 120.977 193.31 120.758 193.31Z" fill="white"/>
<path d="M445.889 73.6582H435.818V44.5255H445.889V73.6582Z" fill="#78BBE6"/>
<path d="M574.946 73.6597H564.876V54.0039H574.946V73.6597Z" fill="#78BBE6"/>
<path d="M488.56 73.6597H478.493V5.49318H488.56V73.6597Z" fill="#78BBE6"/>
<path d="M509.895 73.6582H499.826V43.0187H509.895V73.6582Z" fill="#78BBE6"/>
<path d="M531.232 73.6582H521.168V34.3436H531.232V73.6582Z" fill="#78BBE6"/>
<path d="M467.225 73.6592H457.157V25.2903H467.225V73.6592Z" fill="#78BBE6"/>
<path d="M552.636 73.6597H542.571V14.0821H552.636V73.6597Z" fill="#78BBE6"/>
<path d="M80.0728 82.0089L43.8625 59.8637L37.3125 101.802C54.3233 104.484 71.1939 96.5123 80.0728 82.0089Z" fill="#A2DFF2"/>
<path d="M80.1116 81.9585C80.2094 81.7979 80.3369 81.5783 80.3319 81.5867C87.9796 68.7762 88.2883 52.8644 81.2718 39.806C68.4576 46.5183 76.0885 42.4397 43.8633 59.864C80.1333 82.0458 74.5004 78.6235 80.1116 81.9585Z" fill="#5E6876"/>
<path d="M4.05762 45.1959L43.8628 59.8638L81.2034 39.6739C63.7368 7.37133 16.7223 11.2463 4.05762 45.1959Z" fill="#78BBE6"/>
<path d="M37.3133 101.802L43.8633 59.8638L4.0583 45.1971C-5.40707 70.5759 11.3931 97.7152 37.3133 101.802Z" fill="#FDB44B"/>
<path d="M38.926 100.604L44.9293 62.1679L60.5527 71.72C66.8513 75.5752 70.455 77.7806 72.7236 79.1625L78.1169 82.4621C69.5136 95.5084 54.3965 102.508 38.926 100.604ZM8.41221 80.4006C2.45115 70.1942 1.19982 58.104 4.91065 47.0122L31.1306 56.6742L42.2939 60.786L36.1436 100.165C24.528 97.9253 14.4768 90.7789 8.41221 80.4006ZM5.89434 44.3725C11.8954 29.7638 25.2987 20.0792 41.199 18.9765C56.909 17.8823 71.369 25.573 79.2749 39.1156L68.2468 45.0775C65.97 46.3043 62.7871 48.0246 57.4584 50.9097C54.0445 52.7569 49.7488 55.0808 44.2468 58.0533L43.9067 58.2394L42.7978 57.5626L42.7372 57.9461L25.2979 51.5217L5.89434 44.3725ZM77.7444 43.2387C78.5786 42.8016 79.5344 42.3024 80.6698 41.7074C86.6382 53.8004 86.2478 68.2709 79.613 80.0226L79.3443 79.8647C77.8651 78.9876 77.2221 78.6069 74.2738 76.8076L46.6858 59.94L69.5872 47.5565C72.9503 45.7459 74.3288 45.0239 77.7444 43.2387ZM81.9905 81.5286C89.1862 68.88 89.596 53.2617 83.0892 40.255L83.1129 40.2409L82.4428 39.0028L82.4011 38.9295L81.8531 37.9086L81.832 37.9198C77.607 30.5789 71.5822 24.7241 64.3363 20.9478C57.2401 17.2534 49.1732 15.5979 41.0039 16.1648C23.984 17.3465 9.64408 27.7389 3.25265 43.3995L3.22924 43.391L2.73909 44.7052L2.245 46.0307L2.2684 46.0392C-1.73291 57.9235 -0.407126 70.888 5.97979 81.8191C12.4739 92.9364 23.2532 100.576 35.709 102.948L35.7053 102.973L37.0928 103.193L38.4877 103.413L38.4911 103.388C40.2929 103.614 42.0978 103.724 43.8985 103.724C50.2319 103.724 56.5046 102.342 62.3379 99.6259C69.8058 96.1486 76.0793 90.7112 80.5612 83.8609L80.5894 83.8779L80.8652 83.4266L81.3145 82.6906C81.3833 82.5778 81.4659 82.4395 81.5127 82.3578L81.5423 82.3098L81.5641 82.2703L82.0108 81.5399L81.9905 81.5286Z" fill="#E7F3FE"/>
<path d="M204 12.6388C204 19.6186 198.341 25.2775 191.361 25.2775C184.381 25.2775 178.722 19.6186 178.722 12.6388C178.722 5.65888 184.381 4.57764e-05 191.361 4.57764e-05C198.341 4.57764e-05 204 5.65888 204 12.6388Z" fill="#D5EEFF"/>
<path d="M200.662 13.1995C200.662 16.7008 197.823 19.54 194.321 19.54C190.819 19.54 187.98 16.7008 187.98 13.1995C187.98 9.69834 190.819 6.85908 194.321 6.85908C197.823 6.85908 200.662 9.69834 200.662 13.1995Z" fill="white"/>
<path d="M489.274 372.556H457.896C453.306 372.556 449.552 368.801 449.552 364.212V332.834C449.552 328.242 453.306 324.488 457.896 324.488H489.274C493.864 324.488 497.618 328.242 497.618 332.834V364.212C497.618 368.801 493.864 372.556 489.274 372.556Z" fill="#78BBE6"/>
<path d="M472.516 333.252C468.688 333.252 465.576 336.365 465.576 340.19V371.569C465.576 375.394 468.688 378.504 472.516 378.504H503.894C507.715 378.504 510.827 375.394 510.827 371.569V340.19C510.827 336.365 507.715 333.252 503.894 333.252H472.516ZM503.894 381.32H472.516C467.135 381.32 462.764 376.946 462.764 371.569V340.19C462.764 334.813 467.135 330.436 472.516 330.436H503.894C509.274 330.436 513.646 334.813 513.646 340.19V371.569C513.646 376.946 509.274 381.32 503.894 381.32Z" fill="white"/>
<path d="M151.583 338.724L143.575 329.488C142.358 328.085 142.51 325.939 143.915 324.722L153.149 316.714C154.554 315.495 156.701 315.65 157.917 317.052L165.925 326.288C167.145 327.694 166.99 329.837 165.587 331.057L156.351 339.065C154.946 340.282 152.802 340.13 151.583 338.724Z" fill="#D5EEFF"/>
<path d="M199.676 346.453C199.676 350.358 196.511 353.523 192.602 353.523C188.697 353.523 185.531 350.358 185.531 346.453C185.531 342.544 188.697 339.379 192.602 339.379C196.511 339.379 199.676 342.544 199.676 346.453Z" fill="#D5EEFF"/>
<path d="M596.953 16.1343C596.953 20.0271 593.793 23.1846 589.903 23.1846C586.013 23.1846 582.854 20.0271 582.854 16.1343C582.854 12.2415 586.013 9.08396 589.903 9.08396C593.793 9.08396 596.953 12.2415 596.953 16.1343Z" fill="#D5EEFF"/>
<path d="M589.773 211.333C589.773 215.227 586.615 218.383 582.724 218.383C578.828 218.383 575.67 215.227 575.67 211.333C575.67 207.44 578.828 204.284 582.724 204.284C586.615 204.284 589.773 207.44 589.773 211.333Z" fill="#D5EEFF"/>
<path d="M570.601 116.191C570.601 119.224 568.142 121.683 565.111 121.683C562.074 121.683 559.615 119.224 559.615 116.191C559.615 113.157 562.074 110.698 565.111 110.698C568.142 110.698 570.601 113.157 570.601 116.191Z" fill="#D5EEFF"/>
<path d="M560.644 200.328H443.872C442.602 200.328 441.572 199.298 441.572 198.027V147.776C441.572 146.506 442.602 145.476 443.872 145.476H560.644C561.913 145.476 562.943 146.506 562.943 147.776V198.027C562.943 199.298 561.913 200.328 560.644 200.328Z" fill="#78BBE6"/>
<path d="M557.769 197.751H446.749C445.723 197.751 444.891 196.919 444.891 195.892V161.744C444.891 160.717 445.723 159.885 446.749 159.885H557.769C558.795 159.885 559.628 160.717 559.628 161.744V195.892C559.628 196.919 558.795 197.751 557.769 197.751Z" fill="white"/>
<path d="M450.296 153.793H447.604C447.035 153.793 446.571 153.33 446.571 152.76V150.545C446.571 149.975 447.035 149.512 447.604 149.512H450.296C450.866 149.512 451.329 149.975 451.329 150.545V152.76C451.329 153.33 450.866 153.793 450.296 153.793Z" fill="white"/>
<path d="M458.942 153.793H456.249C455.677 153.793 455.222 153.328 455.222 152.761V150.541C455.222 149.974 455.677 149.509 456.249 149.509H458.942C459.514 149.509 459.974 149.974 459.974 150.541V152.761C459.974 153.328 459.514 153.793 458.942 153.793Z" fill="white"/>
<path d="M467.588 153.792H464.895C464.325 153.792 463.864 153.331 463.864 152.761V150.542C463.864 149.972 464.325 149.511 464.895 149.511H467.588C468.158 149.511 468.619 149.972 468.619 150.542V152.761C468.619 153.331 468.158 153.792 467.588 153.792Z" fill="white"/>
<path d="M554.961 168.186H494.266C493.269 168.186 492.454 167.368 492.454 166.37C492.454 165.371 493.269 164.555 494.266 164.555H554.961C555.958 164.555 556.773 165.371 556.773 166.37C556.773 167.368 555.958 168.186 554.961 168.186Z" fill="#1B435D"/>
<path d="M509.31 196.198H448.622C447.618 196.198 446.806 195.381 446.806 194.383C446.806 193.384 447.618 192.567 448.622 192.567H509.31C510.309 192.567 511.126 193.384 511.126 194.383C511.126 195.381 510.309 196.198 509.31 196.198Z" fill="#1B435D"/>
<path d="M520.493 196.195H514.213C513.87 196.195 513.594 195.916 513.594 195.575V193.185C513.594 192.843 513.87 192.565 514.213 192.565H520.493C520.832 192.565 521.113 192.843 521.113 193.185V195.575C521.113 195.916 520.832 196.195 520.493 196.195Z" fill="#1B435D"/>
<path d="M529.962 196.195H523.681C523.338 196.195 523.059 195.916 523.059 195.574V193.185C523.059 192.843 523.338 192.564 523.681 192.564H529.962C530.3 192.564 530.58 192.843 530.58 193.185V195.574C530.58 195.916 530.3 196.195 529.962 196.195Z" fill="#1B435D"/>
<path d="M555.543 176.096H455.042C454.364 176.096 453.808 175.542 453.808 174.864C453.808 174.186 454.364 173.632 455.042 173.632H555.543C556.216 173.632 556.773 174.186 556.773 174.864C556.773 175.542 556.216 176.096 555.543 176.096Z" fill="#1B435D"/>
<path d="M555.543 181.413H455.042C454.364 181.413 453.808 180.859 453.808 180.181C453.808 179.504 454.364 178.949 455.042 178.949H555.543C556.216 178.949 556.773 179.504 556.773 180.181C556.773 180.859 556.216 181.413 555.543 181.413Z" fill="#1B435D"/>
<path d="M41.6103 160.973C41.6103 168.671 35.369 174.912 27.6704 174.912C19.9718 174.912 13.7305 168.671 13.7305 160.973C13.7305 153.274 19.9718 147.033 27.6704 147.033C35.369 147.033 41.6103 153.274 41.6103 160.973Z" fill="#D5EEFF"/>
<path d="M11.3344 364.45H1.26562V309.521H11.3344V364.45Z" fill="#78BBE6"/>
<path d="M54.0053 364.453H43.9365V325.503H54.0053V364.453Z" fill="#78BBE6"/>
<path d="M75.3422 364.45H65.2734V309.521H75.3422V364.45Z" fill="#78BBE6"/>
<path d="M96.6793 364.449H86.6104V344.975H96.6793V364.449Z" fill="#78BBE6"/>
<path d="M32.6692 364.452H22.6006V292.801H32.6692V364.452Z" fill="#78BBE6"/>
<path d="M118.084 364.453H108.015V325.503H118.084V364.453Z" fill="#78BBE6"/>
<path d="M128.482 397.709H28.3077C27.2845 397.709 26.4473 396.871 26.4473 395.847C26.4473 394.825 27.2845 393.988 28.3077 393.988H128.482C129.506 393.988 130.341 394.825 130.341 395.847C130.341 396.871 129.506 397.709 128.482 397.709Z" fill="#78BBE6"/>
<path d="M128.479 407H28.3056C27.2825 407 26.4453 406.164 26.4453 405.142C26.4453 404.116 27.2825 403.28 28.3056 403.28H128.479C129.502 403.28 130.338 404.116 130.338 405.142C130.338 406.164 129.502 407 128.479 407Z" fill="#78BBE6"/>
<path d="M356.646 387.676L349.252 376.248C347.094 376.493 344.902 376.626 342.677 376.626C339.417 376.626 336.219 376.35 333.109 375.826L325.123 386.845C321.22 385.831 317.442 384.487 313.835 382.842L314.57 369.257C309.844 366.587 305.536 363.266 301.77 359.415L288.838 363.635C286.304 360.556 284.028 357.252 282.045 353.762L290.616 343.213C288.399 338.374 286.838 333.172 286.041 327.718L273.108 323.536C273.028 322.161 272.982 320.775 272.982 319.378C272.982 316.733 273.137 314.122 273.425 311.553L286.554 308.06C287.635 302.672 289.472 297.557 291.952 292.833L283.949 281.839C286.107 278.462 288.554 275.288 291.25 272.341L303.941 277.237C307.899 273.595 312.378 270.502 317.246 268.085L317.233 258.255H333.351L336.107 262.511C338.265 262.263 340.457 262.133 342.677 262.133C345.942 262.133 349.14 262.409 352.25 262.933L355.64 258.255H371.399L370.789 269.502C375.515 272.17 379.819 275.49 383.589 279.341L396.526 275.121C399.06 278.203 401.331 281.504 403.314 284.994L394.743 295.546C396.96 300.385 398.525 305.587 399.318 311.038L412.251 315.221C412.331 316.598 412.377 317.984 412.377 319.378C412.377 322.026 412.226 324.634 411.938 327.203L398.805 330.699C397.724 336.087 395.883 341.2 393.407 345.926L401.414 356.917C399.252 360.294 396.801 363.471 394.109 366.417L381.422 361.522C377.46 365.164 372.985 368.254 368.113 370.674L368.13 384.281C364.448 385.727 360.607 386.87 356.646 387.676ZM342.677 292.041C327.582 292.041 315.342 304.28 315.342 319.378C315.342 334.476 327.582 346.715 342.677 346.715C357.777 346.715 370.017 334.476 370.017 319.378C370.017 304.28 357.777 292.041 342.677 292.041Z" fill="#D5EEFF"/>
<path d="M371.398 258.256H355.635L360.234 251.915C364.143 252.931 367.913 254.273 371.524 255.917L371.398 258.256ZM333.351 258.256H317.231L317.224 254.477C320.912 253.029 324.75 251.891 328.713 251.083L333.351 258.256Z" fill="#78BBE6"/>
<path d="M379.963 350.942C379.647 350.942 379.327 350.835 379.063 350.619C378.464 350.12 378.383 349.233 378.881 348.633C385.695 340.442 389.447 330.054 389.447 319.378C389.447 314.268 388.612 309.249 386.959 304.463C386.708 303.725 387.101 302.926 387.834 302.672C388.568 302.418 389.374 302.81 389.625 303.545C391.375 308.626 392.262 313.956 392.262 319.378C392.262 330.71 388.28 341.737 381.049 350.436C380.769 350.771 380.368 350.942 379.963 350.942Z" fill="white"/>
<path d="M376.009 286.422C375.66 286.422 375.316 286.295 375.042 286.039C370.463 281.729 365.159 278.462 359.281 276.327C358.549 276.062 358.172 275.254 358.438 274.524C358.703 273.792 359.511 273.414 360.244 273.679C366.482 275.944 372.111 279.414 376.975 283.989C377.542 284.521 377.565 285.414 377.035 285.98C376.757 286.273 376.381 286.422 376.009 286.422Z" fill="white"/>
<path d="M332.076 275.029C331.444 275.029 330.872 274.604 330.711 273.965C330.519 273.212 330.978 272.445 331.73 272.257C335.612 271.279 339.626 270.779 343.662 270.779C344.441 270.779 345.069 271.411 345.069 272.189C345.069 272.964 344.441 273.596 343.662 273.596C339.855 273.596 336.075 274.063 332.418 274.988C332.302 275.014 332.189 275.029 332.076 275.029Z" fill="white"/>
</svg>
